G04 ---------------------------- Layer name :BOTTOM LAYER*
G04 EasyEDA v5.6.15, Sat, 04 Aug 2018 23:35:44 GMT*
G04 ff0a0dfc338b45029632b96415005eff*
G04 Gerber Generator version 0.2*
G04 Scale: 100 percent, Rotated: No, Reflected: No *
G04 Dimensions in inches *
G04 leading zeros omitted , absolute positions ,2 integer and 4 decimal *
%FSLAX24Y24*%
%MOIN*%
G90*
G70D02*

%ADD11C,0.008000*%
%ADD13R,0.080000X0.080000*%
%ADD14C,0.004000*%

%LPD*%

%LPD*%
G36*
G01X1500Y2000D02*
G01X1500Y2000D01*
G01X1500Y2000D01*
G01X1503Y1988D01*
G01X1508Y1962D01*
G01X1515Y1925D01*
G01X1523Y1881D01*
G01X1523Y1881D01*
G01X1532Y1837D01*
G01X1539Y1799D01*
G01X1546Y1771D01*
G01X1550Y1758D01*
G01X1550Y1758D01*
G01X1560Y1750D01*
G01X1580Y1738D01*
G01X1608Y1724D01*
G01X1639Y1711D01*
G01X1671Y1698D01*
G01X1699Y1688D01*
G01X1720Y1682D01*
G01X1731Y1682D01*
G01X1731Y1682D01*
G01X1743Y1690D01*
G01X1766Y1706D01*
G01X1798Y1728D01*
G01X1835Y1754D01*
G01X1835Y1754D01*
G01X1872Y1779D01*
G01X1903Y1800D01*
G01X1926Y1814D01*
G01X1938Y1819D01*
G01X1938Y1819D01*
G01X1944Y1815D01*
G01X1956Y1806D01*
G01X1972Y1792D01*
G01X1991Y1774D01*
G01X2013Y1753D01*
G01X2035Y1731D01*
G01X2056Y1709D01*
G01X2077Y1687D01*
G01X2094Y1668D01*
G01X2109Y1651D01*
G01X2118Y1639D01*
G01X2121Y1633D01*
G01X2121Y1633D01*
G01X2116Y1620D01*
G01X2101Y1596D01*
G01X2080Y1562D01*
G01X2054Y1523D01*
G01X2054Y1523D01*
G01X2028Y1485D01*
G01X2007Y1453D01*
G01X1993Y1430D01*
G01X1987Y1419D01*
G01X1987Y1419D01*
G01X1990Y1410D01*
G01X1998Y1389D01*
G01X2010Y1361D01*
G01X2025Y1326D01*
G01X2062Y1240D01*
G01X2103Y1231D01*
G01X2103Y1231D01*
G01X2124Y1227D01*
G01X2153Y1222D01*
G01X2186Y1217D01*
G01X2217Y1212D01*
G01X2217Y1212D01*
G01X2247Y1207D01*
G01X2274Y1201D01*
G01X2294Y1194D01*
G01X2304Y1188D01*
G01X2304Y1188D01*
G01X2308Y1180D01*
G01X2312Y1164D01*
G01X2314Y1142D01*
G01X2316Y1116D01*
G01X2318Y1088D01*
G01X2318Y1057D01*
G01X2318Y1027D01*
G01X2317Y998D01*
G01X2316Y973D01*
G01X2313Y952D01*
G01X2310Y937D01*
G01X2306Y929D01*
G01X2306Y929D01*
G01X2293Y924D01*
G01X2267Y917D01*
G01X2230Y909D01*
G01X2188Y900D01*
G01X2188Y900D01*
G01X2146Y892D01*
G01X2109Y883D01*
G01X2083Y876D01*
G01X2071Y870D01*
G01X2071Y870D01*
G01X2064Y859D01*
G01X2054Y839D01*
G01X2041Y812D01*
G01X2029Y782D01*
G01X2016Y752D01*
G01X2006Y724D01*
G01X1999Y702D01*
G01X1996Y690D01*
G01X1996Y690D01*
G01X2000Y678D01*
G01X2012Y658D01*
G01X2029Y632D01*
G01X2049Y602D01*
G01X2049Y602D01*
G01X2076Y565D01*
G01X2095Y537D01*
G01X2108Y515D01*
G01X2115Y498D01*
G01X2116Y484D01*
G01X2113Y471D01*
G01X2104Y458D01*
G01X2092Y442D01*
G01X2092Y442D01*
G01X2075Y423D01*
G01X2051Y399D01*
G01X2025Y373D01*
G01X1998Y349D01*
G01X1936Y294D01*
G01X1838Y361D01*
G01X1740Y429D01*
G01X1694Y406D01*
G01X1694Y406D01*
G01X1676Y397D01*
G01X1660Y389D01*
G01X1648Y385D01*
G01X1641Y383D01*
G01X1641Y383D01*
G01X1635Y391D01*
G01X1623Y414D01*
G01X1608Y447D01*
G01X1590Y488D01*
G01X1590Y488D01*
G01X1581Y511D01*
G01X1570Y537D01*
G01X1559Y564D01*
G01X1547Y593D01*
G01X1535Y621D01*
G01X1524Y649D01*
G01X1513Y675D01*
G01X1503Y699D01*
G01X1459Y805D01*
G01X1480Y822D01*
G01X1480Y822D01*
G01X1503Y839D01*
G01X1522Y855D01*
G01X1538Y869D01*
G01X1551Y882D01*
G01X1562Y894D01*
G01X1572Y907D01*
G01X1581Y920D01*
G01X1589Y935D01*
G01X1589Y935D01*
G01X1599Y955D01*
G01X1607Y975D01*
G01X1613Y996D01*
G01X1617Y1017D01*
G01X1619Y1038D01*
G01X1620Y1059D01*
G01X1619Y1080D01*
G01X1616Y1101D01*
G01X1612Y1121D01*
G01X1606Y1141D01*
G01X1599Y1160D01*
G01X1590Y1179D01*
G01X1579Y1197D01*
G01X1567Y1214D01*
G01X1554Y1230D01*
G01X1540Y1246D01*
G01X1524Y1259D01*
G01X1506Y1272D01*
G01X1488Y1283D01*
G01X1468Y1292D01*
G01X1468Y1292D01*
G01X1442Y1303D01*
G01X1417Y1308D01*
G01X1388Y1310D01*
G01X1348Y1309D01*
G01X1348Y1309D01*
G01X1309Y1306D01*
G01X1281Y1301D01*
G01X1257Y1292D01*
G01X1232Y1278D01*
G01X1232Y1278D01*
G01X1213Y1265D01*
G01X1195Y1252D01*
G01X1180Y1237D01*
G01X1165Y1221D01*
G01X1153Y1203D01*
G01X1142Y1185D01*
G01X1133Y1166D01*
G01X1125Y1146D01*
G01X1119Y1125D01*
G01X1115Y1103D01*
G01X1113Y1079D01*
G01X1112Y1055D01*
G01X1112Y1055D01*
G01X1113Y1026D01*
G01X1116Y1000D01*
G01X1122Y976D01*
G01X1130Y953D01*
G01X1142Y932D01*
G01X1156Y911D01*
G01X1174Y890D01*
G01X1195Y869D01*
G01X1195Y869D01*
G01X1216Y850D01*
G01X1235Y834D01*
G01X1249Y824D01*
G01X1256Y820D01*
G01X1256Y820D01*
G01X1262Y818D01*
G01X1264Y811D01*
G01X1263Y799D01*
G01X1258Y781D01*
G01X1250Y756D01*
G01X1237Y723D01*
G01X1221Y682D01*
G01X1199Y631D01*
G01X1199Y631D01*
G01X1186Y599D01*
G01X1172Y568D01*
G01X1160Y537D01*
G01X1148Y509D01*
G01X1138Y484D01*
G01X1129Y462D01*
G01X1122Y445D01*
G01X1117Y433D01*
G01X1117Y433D01*
G01X1110Y416D01*
G01X1103Y401D01*
G01X1095Y391D01*
G01X1090Y386D01*
G01X1090Y386D01*
G01X1082Y386D01*
G01X1069Y389D01*
G01X1052Y396D01*
G01X1035Y405D01*
G01X991Y429D01*
G01X898Y366D01*
G01X898Y366D01*
G01X860Y341D01*
G01X828Y321D01*
G01X804Y307D01*
G01X791Y302D01*
G01X791Y302D01*
G01X785Y306D01*
G01X773Y315D01*
G01X757Y329D01*
G01X737Y347D01*
G01X716Y367D01*
G01X693Y388D01*
G01X671Y410D01*
G01X650Y431D01*
G01X632Y450D01*
G01X618Y466D01*
G01X608Y477D01*
G01X605Y484D01*
G01X605Y484D01*
G01X610Y494D01*
G01X624Y517D01*
G01X646Y549D01*
G01X671Y587D01*
G01X738Y684D01*
G01X711Y757D01*
G01X711Y757D01*
G01X701Y786D01*
G01X692Y810D01*
G01X684Y830D01*
G01X677Y845D01*
G01X669Y857D01*
G01X660Y867D01*
G01X649Y874D01*
G01X635Y880D01*
G01X618Y885D01*
G01X597Y890D01*
G01X572Y895D01*
G01X541Y900D01*
G01X422Y923D01*
G01X419Y1058D01*
G01X419Y1058D01*
G01X419Y1099D01*
G01X418Y1131D01*
G01X419Y1155D01*
G01X420Y1172D01*
G01X422Y1184D01*
G01X424Y1191D01*
G01X428Y1195D01*
G01X433Y1198D01*
G01X433Y1198D01*
G01X447Y1200D01*
G01X473Y1205D01*
G01X507Y1211D01*
G01X547Y1217D01*
G01X547Y1217D01*
G01X586Y1224D01*
G01X620Y1230D01*
G01X646Y1236D01*
G01X660Y1240D01*
G01X660Y1240D01*
G01X667Y1247D01*
G01X676Y1259D01*
G01X684Y1276D01*
G01X692Y1295D01*
G01X692Y1295D01*
G01X701Y1316D01*
G01X710Y1340D01*
G01X720Y1362D01*
G01X728Y1381D01*
G01X746Y1421D01*
G01X675Y1524D01*
G01X675Y1524D01*
G01X648Y1565D01*
G01X625Y1600D01*
G01X610Y1625D01*
G01X605Y1637D01*
G01X605Y1637D01*
G01X612Y1647D01*
G01X631Y1669D01*
G01X659Y1699D01*
G01X693Y1734D01*
G01X693Y1734D01*
G01X717Y1757D01*
G01X737Y1777D01*
G01X753Y1792D01*
G01X767Y1803D01*
G01X780Y1809D01*
G01X793Y1812D01*
G01X807Y1810D01*
G01X822Y1804D01*
G01X840Y1793D01*
G01X861Y1779D01*
G01X888Y1760D01*
G01X920Y1737D01*
G01X1007Y1675D01*
G01X1095Y1712D01*
G01X1183Y1750D01*
G01X1202Y1858D01*
G01X1202Y1858D01*
G01X1210Y1901D01*
G01X1217Y1940D01*
G01X1222Y1970D01*
G01X1225Y1986D01*
G01X1225Y1986D01*
G01X1227Y1993D01*
G01X1230Y1998D01*
G01X1236Y2001D01*
G01X1246Y2004D01*
G01X1263Y2005D01*
G01X1286Y2006D01*
G01X1319Y2006D01*
G01X1363Y2006D01*
G01X1363Y2006D01*
G01X1415Y2006D01*
G01X1458Y2004D01*
G01X1488Y2002D01*
G01X1500Y2000D01*
G37*

%LPD*%
G54D14*
G01X513Y3918D02*
G01X527Y3945D01*
G01X554Y3972D01*
G01X581Y3986D01*
G01X622Y4000D01*
G01X690Y4000D01*
G01X731Y3986D01*
G01X759Y3972D01*
G01X786Y3945D01*
G01X799Y3918D01*
G01X799Y3863D01*
G01X786Y3836D01*
G01X759Y3809D01*
G01X731Y3795D01*
G01X690Y3781D01*
G01X622Y3781D01*
G01X581Y3795D01*
G01X554Y3809D01*
G01X527Y3836D01*
G01X513Y3863D01*
G01X513Y3918D01*
G01X609Y3691D02*
G01X799Y3691D01*
G01X690Y3691D02*
G01X649Y3678D01*
G01X622Y3650D01*
G01X609Y3623D01*
G01X609Y3582D01*
G01X513Y3492D02*
G01X527Y3479D01*
G01X513Y3465D01*
G01X499Y3479D01*
G01X513Y3492D01*
G01X609Y3479D02*
G01X799Y3479D01*
G01X609Y3211D02*
G01X827Y3211D01*
G01X868Y3225D01*
G01X881Y3239D01*
G01X895Y3266D01*
G01X895Y3307D01*
G01X881Y3334D01*
G01X649Y3211D02*
G01X622Y3239D01*
G01X609Y3266D01*
G01X609Y3307D01*
G01X622Y3334D01*
G01X649Y3361D01*
G01X690Y3375D01*
G01X718Y3375D01*
G01X759Y3361D01*
G01X786Y3334D01*
G01X799Y3307D01*
G01X799Y3266D01*
G01X786Y3239D01*
G01X759Y3211D01*
G01X609Y3053D02*
G01X622Y3080D01*
G01X649Y3108D01*
G01X690Y3121D01*
G01X718Y3121D01*
G01X759Y3108D01*
G01X786Y3080D01*
G01X799Y3053D01*
G01X799Y3012D01*
G01X786Y2985D01*
G01X759Y2958D01*
G01X718Y2944D01*
G01X690Y2944D01*
G01X649Y2958D01*
G01X622Y2985D01*
G01X609Y3012D01*
G01X609Y3053D01*
G01X1309Y3836D02*
G01X1499Y3836D01*
G01X1349Y3836D02*
G01X1322Y3863D01*
G01X1309Y3890D01*
G01X1309Y3931D01*
G01X1322Y3959D01*
G01X1349Y3986D01*
G01X1390Y4000D01*
G01X1418Y4000D01*
G01X1459Y3986D01*
G01X1486Y3959D01*
G01X1499Y3931D01*
G01X1499Y3890D01*
G01X1486Y3863D01*
G01X1459Y3836D01*
G01X1213Y3582D02*
G01X1499Y3582D01*
G01X1349Y3582D02*
G01X1322Y3609D01*
G01X1309Y3637D01*
G01X1309Y3678D01*
G01X1322Y3705D01*
G01X1349Y3732D01*
G01X1390Y3746D01*
G01X1418Y3746D01*
G01X1459Y3732D01*
G01X1486Y3705D01*
G01X1499Y3678D01*
G01X1499Y3637D01*
G01X1486Y3609D01*
G01X1459Y3582D01*
G01X1349Y3342D02*
G01X1322Y3356D01*
G01X1309Y3397D01*
G01X1309Y3438D01*
G01X1322Y3479D01*
G01X1349Y3492D01*
G01X1377Y3479D01*
G01X1390Y3451D01*
G01X1404Y3383D01*
G01X1418Y3356D01*
G01X1445Y3342D01*
G01X1459Y3342D01*
G01X1486Y3356D01*
G01X1499Y3397D01*
G01X1499Y3438D01*
G01X1486Y3479D01*
G01X1459Y3492D01*
G01X1309Y3089D02*
G01X1499Y3089D01*
G01X1349Y3089D02*
G01X1322Y3116D01*
G01X1309Y3143D01*
G01X1309Y3184D01*
G01X1322Y3211D01*
G01X1349Y3239D01*
G01X1390Y3252D01*
G01X1418Y3252D01*
G01X1459Y3239D01*
G01X1486Y3211D01*
G01X1499Y3184D01*
G01X1499Y3143D01*
G01X1486Y3116D01*
G01X1459Y3089D01*
G01X1309Y2999D02*
G01X1499Y2999D01*
G01X1363Y2999D02*
G01X1322Y2958D01*
G01X1309Y2930D01*
G01X1309Y2890D01*
G01X1322Y2862D01*
G01X1363Y2849D01*
G01X1499Y2849D01*
G01X1213Y2718D02*
G01X1445Y2718D01*
G01X1486Y2704D01*
G01X1499Y2677D01*
G01X1499Y2650D01*
G01X1309Y2759D02*
G01X1309Y2663D01*
G01X1309Y2491D02*
G01X1322Y2519D01*
G01X1349Y2546D01*
G01X1390Y2559D01*
G01X1418Y2559D01*
G01X1459Y2546D01*
G01X1486Y2519D01*
G01X1499Y2491D01*
G01X1499Y2450D01*
G01X1486Y2423D01*
G01X1459Y2396D01*
G01X1418Y2382D01*
G01X1390Y2382D01*
G01X1349Y2396D01*
G01X1322Y2423D01*
G01X1309Y2450D01*
G01X1309Y2491D01*
G01X1349Y2142D02*
G01X1322Y2156D01*
G01X1309Y2197D01*
G01X1309Y2238D01*
G01X1322Y2279D01*
G01X1349Y2292D01*
G01X1377Y2279D01*
G01X1390Y2251D01*
G01X1404Y2183D01*
G01X1418Y2156D01*
G01X1445Y2142D01*
G01X1459Y2142D01*
G01X1486Y2156D01*
G01X1499Y2197D01*
G01X1499Y2238D01*
G01X1486Y2279D01*
G01X1459Y2292D01*
G01X2009Y4000D02*
G01X2199Y3918D01*
G01X2009Y3836D02*
G01X2199Y3918D01*
G01X1968Y3746D02*
G01X1954Y3719D01*
G01X1913Y3678D01*
G01X2199Y3678D01*
G01X2131Y3574D02*
G01X2145Y3588D01*
G01X2159Y3574D01*
G01X2145Y3560D01*
G01X2131Y3574D01*
G01X1913Y3389D02*
G01X1927Y3430D01*
G01X1968Y3457D01*
G01X2036Y3470D01*
G01X2077Y3470D01*
G01X2145Y3457D01*
G01X2186Y3430D01*
G01X2199Y3389D01*
G01X2199Y3361D01*
G01X2186Y3320D01*
G01X2145Y3293D01*
G01X2077Y3280D01*
G01X2036Y3280D01*
G01X1968Y3293D01*
G01X1927Y3320D01*
G01X1913Y3361D01*
G01X1913Y3389D01*
G54D11*
G01X4929Y3900D02*
G01X4704Y3900D01*
G01X4827Y3736D01*
G01X4765Y3736D01*
G01X4725Y3715D01*
G01X4704Y3696D01*
G01X4684Y3634D01*
G01X4684Y3594D01*
G01X4704Y3532D01*
G01X4745Y3490D01*
G01X4806Y3471D01*
G01X4868Y3471D01*
G01X4929Y3490D01*
G01X4950Y3511D01*
G01X4970Y3553D01*
G01X4549Y3900D02*
G01X4385Y3471D01*
G01X4221Y3900D02*
G01X4385Y3471D01*
G01X4045Y3900D02*
G01X3820Y3900D01*
G01X3943Y3736D01*
G01X3882Y3736D01*
G01X3841Y3715D01*
G01X3820Y3696D01*
G01X3800Y3634D01*
G01X3800Y3594D01*
G01X3820Y3532D01*
G01X3861Y3490D01*
G01X3923Y3471D01*
G01X3984Y3471D01*
G01X4045Y3490D01*
G01X4066Y3511D01*
G01X4086Y3553D01*
G01X4663Y2798D02*
G01X4684Y2838D01*
G01X4725Y2880D01*
G01X4765Y2900D01*
G01X4847Y2900D01*
G01X4888Y2880D01*
G01X4929Y2838D01*
G01X4950Y2798D01*
G01X4970Y2736D01*
G01X4970Y2634D01*
G01X4950Y2573D01*
G01X4929Y2532D01*
G01X4888Y2490D01*
G01X4847Y2471D01*
G01X4765Y2471D01*
G01X4725Y2490D01*
G01X4684Y2532D01*
G01X4663Y2573D01*
G01X4663Y2634D01*
G01X4765Y2634D02*
G01X4663Y2634D01*
G01X4528Y2900D02*
G01X4528Y2471D01*
G01X4528Y2900D02*
G01X4242Y2471D01*
G01X4242Y2900D02*
G01X4242Y2471D01*
G01X4107Y2900D02*
G01X4107Y2471D01*
G01X4107Y2900D02*
G01X3964Y2900D01*
G01X3902Y2880D01*
G01X3861Y2838D01*
G01X3841Y2798D01*
G01X3820Y2736D01*
G01X3820Y2634D01*
G01X3841Y2573D01*
G01X3861Y2532D01*
G01X3902Y2490D01*
G01X3964Y2471D01*
G01X4107Y2471D01*
G01X4663Y1798D02*
G01X4683Y1839D01*
G01X4724Y1880D01*
G01X4765Y1900D01*
G01X4847Y1900D01*
G01X4888Y1880D01*
G01X4929Y1839D01*
G01X4949Y1798D01*
G01X4970Y1736D01*
G01X4970Y1634D01*
G01X4949Y1573D01*
G01X4929Y1532D01*
G01X4888Y1491D01*
G01X4847Y1470D01*
G01X4765Y1470D01*
G01X4724Y1491D01*
G01X4683Y1532D01*
G01X4663Y1573D01*
G01X4663Y1634D01*
G01X4765Y1634D02*
G01X4663Y1634D01*
G01X4528Y1900D02*
G01X4528Y1470D01*
G01X4528Y1900D02*
G01X4344Y1900D01*
G01X4282Y1880D01*
G01X4262Y1859D01*
G01X4241Y1818D01*
G01X4241Y1757D01*
G01X4262Y1716D01*
G01X4282Y1695D01*
G01X4344Y1675D01*
G01X4528Y1675D01*
G01X4106Y1900D02*
G01X4106Y1470D01*
G01X3849Y1900D02*
G01X3890Y1880D01*
G01X3930Y1839D01*
G01X3951Y1798D01*
G01X3971Y1736D01*
G01X3971Y1634D01*
G01X3951Y1573D01*
G01X3930Y1532D01*
G01X3890Y1491D01*
G01X3849Y1470D01*
G01X3767Y1470D01*
G01X3726Y1491D01*
G01X3685Y1532D01*
G01X3665Y1573D01*
G01X3644Y1634D01*
G01X3644Y1736D01*
G01X3665Y1798D01*
G01X3685Y1839D01*
G01X3726Y1880D01*
G01X3767Y1900D01*
G01X3849Y1900D01*
G01X3509Y1818D02*
G01X3468Y1839D01*
G01X3407Y1900D01*
G01X3407Y1470D01*
G01X3251Y1798D02*
G01X3251Y1818D01*
G01X3231Y1859D01*
G01X3210Y1880D01*
G01X3170Y1900D01*
G01X3088Y1900D01*
G01X3047Y1880D01*
G01X3026Y1859D01*
G01X3006Y1818D01*
G01X3006Y1777D01*
G01X3026Y1736D01*
G01X3067Y1675D01*
G01X3272Y1470D01*
G01X2985Y1470D01*
G01X4663Y898D02*
G01X4683Y939D01*
G01X4724Y980D01*
G01X4765Y1000D01*
G01X4847Y1000D01*
G01X4888Y980D01*
G01X4929Y939D01*
G01X4949Y898D01*
G01X4970Y836D01*
G01X4970Y734D01*
G01X4949Y673D01*
G01X4929Y632D01*
G01X4888Y591D01*
G01X4847Y570D01*
G01X4765Y570D01*
G01X4724Y591D01*
G01X4683Y632D01*
G01X4663Y673D01*
G01X4663Y734D01*
G01X4765Y734D02*
G01X4663Y734D01*
G01X4528Y1000D02*
G01X4528Y570D01*
G01X4528Y1000D02*
G01X4344Y1000D01*
G01X4282Y980D01*
G01X4262Y959D01*
G01X4241Y918D01*
G01X4241Y857D01*
G01X4262Y816D01*
G01X4282Y795D01*
G01X4344Y775D01*
G01X4528Y775D01*
G01X4106Y1000D02*
G01X4106Y570D01*
G01X3849Y1000D02*
G01X3890Y980D01*
G01X3930Y939D01*
G01X3951Y898D01*
G01X3971Y836D01*
G01X3971Y734D01*
G01X3951Y673D01*
G01X3930Y632D01*
G01X3890Y591D01*
G01X3849Y570D01*
G01X3767Y570D01*
G01X3726Y591D01*
G01X3685Y632D01*
G01X3665Y673D01*
G01X3644Y734D01*
G01X3644Y836D01*
G01X3665Y898D01*
G01X3685Y939D01*
G01X3726Y980D01*
G01X3767Y1000D01*
G01X3849Y1000D01*
G01X3509Y918D02*
G01X3468Y939D01*
G01X3407Y1000D01*
G01X3407Y570D01*
G01X3067Y1000D02*
G01X3272Y714D01*
G01X2965Y714D01*
G01X3067Y1000D02*
G01X3067Y570D01*
G54D13*
G01X5800Y3700D03*
G01X5800Y2700D03*
G01X5800Y1700D03*
G01X5800Y700D03*
M00*
M02*
