G04 ---------------------------- Layer name :BOTTOM LAYER*
G04 EasyEDA v5.6.15, Sun, 02 Sep 2018 03:47:19 GMT*
G04 622b18d158854e88a3f96799d3f2dec2*
G04 Gerber Generator version 0.2*
G04 Scale: 100 percent, Rotated: No, Reflected: No *
G04 Dimensions in inches *
G04 leading zeros omitted , absolute positions ,2 integer and 4 decimal *
%FSLAX24Y24*%
%MOIN*%
G90*
G70D02*

%ADD11C,0.008000*%
%ADD13R,0.080000X0.080000*%

%LPD*%
G36*
G01X0Y0D02*
G01X0Y4200D01*
G01X7800Y4200D01*
G01X7800Y0D01*
G01X0Y0D01*
G37*

%LPC*%
G36*
G01X6800Y100D02*
G01X7600Y100D01*
G01X7604Y100D01*
G01X7608Y100D01*
G01X7612Y100D01*
G01X7616Y101D01*
G01X7620Y102D01*
G01X7624Y103D01*
G01X7628Y104D01*
G01X7632Y105D01*
G01X7636Y106D01*
G01X7640Y108D01*
G01X7643Y110D01*
G01X7647Y112D01*
G01X7651Y114D01*
G01X7654Y116D01*
G01X7658Y118D01*
G01X7661Y121D01*
G01X7664Y123D01*
G01X7667Y126D01*
G01X7670Y129D01*
G01X7673Y132D01*
G01X7676Y135D01*
G01X7678Y138D01*
G01X7681Y141D01*
G01X7683Y145D01*
G01X7685Y148D01*
G01X7687Y152D01*
G01X7689Y156D01*
G01X7691Y159D01*
G01X7693Y163D01*
G01X7694Y167D01*
G01X7695Y171D01*
G01X7696Y175D01*
G01X7697Y179D01*
G01X7698Y183D01*
G01X7699Y187D01*
G01X7699Y191D01*
G01X7699Y195D01*
G01X7700Y200D01*
G01X7700Y1000D01*
G01X7699Y1004D01*
G01X7699Y1008D01*
G01X7699Y1012D01*
G01X7698Y1016D01*
G01X7697Y1020D01*
G01X7696Y1024D01*
G01X7695Y1028D01*
G01X7694Y1032D01*
G01X7693Y1036D01*
G01X7691Y1040D01*
G01X7689Y1043D01*
G01X7687Y1047D01*
G01X7685Y1051D01*
G01X7683Y1054D01*
G01X7681Y1058D01*
G01X7678Y1061D01*
G01X7676Y1064D01*
G01X7673Y1067D01*
G01X7670Y1070D01*
G01X7667Y1073D01*
G01X7664Y1076D01*
G01X7661Y1078D01*
G01X7658Y1081D01*
G01X7654Y1083D01*
G01X7651Y1085D01*
G01X7647Y1087D01*
G01X7643Y1089D01*
G01X7640Y1091D01*
G01X7636Y1093D01*
G01X7632Y1094D01*
G01X7628Y1095D01*
G01X7624Y1096D01*
G01X7620Y1097D01*
G01X7616Y1098D01*
G01X7612Y1099D01*
G01X7608Y1099D01*
G01X7604Y1099D01*
G01X7600Y1100D01*
G01X7604Y1100D01*
G01X7608Y1100D01*
G01X7612Y1100D01*
G01X7616Y1101D01*
G01X7620Y1102D01*
G01X7624Y1103D01*
G01X7628Y1104D01*
G01X7632Y1105D01*
G01X7636Y1106D01*
G01X7640Y1108D01*
G01X7643Y1110D01*
G01X7647Y1112D01*
G01X7651Y1114D01*
G01X7654Y1116D01*
G01X7658Y1118D01*
G01X7661Y1121D01*
G01X7664Y1123D01*
G01X7667Y1126D01*
G01X7670Y1129D01*
G01X7673Y1132D01*
G01X7676Y1135D01*
G01X7678Y1138D01*
G01X7681Y1141D01*
G01X7683Y1145D01*
G01X7685Y1148D01*
G01X7687Y1152D01*
G01X7689Y1156D01*
G01X7691Y1159D01*
G01X7693Y1163D01*
G01X7694Y1167D01*
G01X7695Y1171D01*
G01X7696Y1175D01*
G01X7697Y1179D01*
G01X7698Y1183D01*
G01X7699Y1187D01*
G01X7699Y1191D01*
G01X7699Y1195D01*
G01X7700Y1200D01*
G01X7700Y2000D01*
G01X7699Y2004D01*
G01X7699Y2008D01*
G01X7699Y2012D01*
G01X7698Y2016D01*
G01X7697Y2020D01*
G01X7696Y2024D01*
G01X7695Y2028D01*
G01X7694Y2032D01*
G01X7693Y2036D01*
G01X7691Y2040D01*
G01X7689Y2043D01*
G01X7687Y2047D01*
G01X7685Y2051D01*
G01X7683Y2054D01*
G01X7681Y2058D01*
G01X7678Y2061D01*
G01X7676Y2064D01*
G01X7673Y2067D01*
G01X7670Y2070D01*
G01X7667Y2073D01*
G01X7664Y2076D01*
G01X7661Y2078D01*
G01X7658Y2081D01*
G01X7654Y2083D01*
G01X7651Y2085D01*
G01X7647Y2087D01*
G01X7643Y2089D01*
G01X7640Y2091D01*
G01X7636Y2093D01*
G01X7632Y2094D01*
G01X7628Y2095D01*
G01X7624Y2096D01*
G01X7620Y2097D01*
G01X7616Y2098D01*
G01X7612Y2099D01*
G01X7608Y2099D01*
G01X7604Y2099D01*
G01X7600Y2100D01*
G01X7604Y2100D01*
G01X7608Y2100D01*
G01X7612Y2100D01*
G01X7616Y2101D01*
G01X7620Y2102D01*
G01X7624Y2103D01*
G01X7628Y2104D01*
G01X7632Y2105D01*
G01X7636Y2106D01*
G01X7640Y2108D01*
G01X7643Y2110D01*
G01X7647Y2112D01*
G01X7651Y2114D01*
G01X7654Y2116D01*
G01X7658Y2118D01*
G01X7661Y2121D01*
G01X7664Y2123D01*
G01X7667Y2126D01*
G01X7670Y2129D01*
G01X7673Y2132D01*
G01X7676Y2135D01*
G01X7678Y2138D01*
G01X7681Y2141D01*
G01X7683Y2145D01*
G01X7685Y2148D01*
G01X7687Y2152D01*
G01X7689Y2156D01*
G01X7691Y2159D01*
G01X7693Y2163D01*
G01X7694Y2167D01*
G01X7695Y2171D01*
G01X7696Y2175D01*
G01X7697Y2179D01*
G01X7698Y2183D01*
G01X7699Y2187D01*
G01X7699Y2191D01*
G01X7699Y2195D01*
G01X7700Y2200D01*
G01X7700Y2400D01*
G01X7400Y2400D01*
G01X7400Y2100D01*
G01X7000Y2100D01*
G01X7000Y2400D01*
G01X6700Y2400D01*
G01X6700Y2200D01*
G01X6700Y2195D01*
G01X6700Y2191D01*
G01X6700Y2187D01*
G01X6701Y2183D01*
G01X6702Y2179D01*
G01X6703Y2175D01*
G01X6704Y2171D01*
G01X6705Y2167D01*
G01X6706Y2163D01*
G01X6708Y2159D01*
G01X6710Y2156D01*
G01X6712Y2152D01*
G01X6714Y2148D01*
G01X6716Y2145D01*
G01X6718Y2141D01*
G01X6721Y2138D01*
G01X6723Y2135D01*
G01X6726Y2132D01*
G01X6729Y2129D01*
G01X6732Y2126D01*
G01X6735Y2123D01*
G01X6738Y2121D01*
G01X6741Y2118D01*
G01X6745Y2116D01*
G01X6748Y2114D01*
G01X6752Y2112D01*
G01X6756Y2110D01*
G01X6759Y2108D01*
G01X6763Y2106D01*
G01X6767Y2105D01*
G01X6771Y2104D01*
G01X6775Y2103D01*
G01X6779Y2102D01*
G01X6783Y2101D01*
G01X6787Y2100D01*
G01X6791Y2100D01*
G01X6795Y2100D01*
G01X6800Y2100D01*
G01X6795Y2099D01*
G01X6791Y2099D01*
G01X6787Y2099D01*
G01X6783Y2098D01*
G01X6779Y2097D01*
G01X6775Y2096D01*
G01X6771Y2095D01*
G01X6767Y2094D01*
G01X6763Y2093D01*
G01X6759Y2091D01*
G01X6756Y2089D01*
G01X6752Y2087D01*
G01X6748Y2085D01*
G01X6745Y2083D01*
G01X6741Y2081D01*
G01X6738Y2078D01*
G01X6735Y2076D01*
G01X6732Y2073D01*
G01X6729Y2070D01*
G01X6726Y2067D01*
G01X6723Y2064D01*
G01X6721Y2061D01*
G01X6718Y2058D01*
G01X6716Y2054D01*
G01X6714Y2051D01*
G01X6712Y2047D01*
G01X6710Y2043D01*
G01X6708Y2040D01*
G01X6706Y2036D01*
G01X6705Y2032D01*
G01X6704Y2028D01*
G01X6703Y2024D01*
G01X6702Y2020D01*
G01X6701Y2016D01*
G01X6700Y2012D01*
G01X6700Y2008D01*
G01X6700Y2004D01*
G01X6700Y2000D01*
G01X6700Y1740D01*
G01X4800Y1740D01*
G01X4794Y1739D01*
G01X4790Y1739D01*
G01X4785Y1739D01*
G01X4780Y1738D01*
G01X4775Y1737D01*
G01X4770Y1736D01*
G01X4765Y1735D01*
G01X4760Y1734D01*
G01X4755Y1732D01*
G01X4751Y1731D01*
G01X4746Y1729D01*
G01X4741Y1727D01*
G01X4737Y1725D01*
G01X4732Y1722D01*
G01X4728Y1720D01*
G01X4724Y1717D01*
G01X4720Y1715D01*
G01X4716Y1712D01*
G01X4712Y1709D01*
G01X4708Y1705D01*
G01X4704Y1702D01*
G01X4701Y1698D01*
G01X4102Y1100D01*
G01X3400Y1100D01*
G01X3395Y1099D01*
G01X3391Y1099D01*
G01X3387Y1099D01*
G01X3383Y1098D01*
G01X3379Y1097D01*
G01X3375Y1096D01*
G01X3371Y1095D01*
G01X3367Y1094D01*
G01X3363Y1093D01*
G01X3359Y1091D01*
G01X3356Y1089D01*
G01X3352Y1087D01*
G01X3348Y1085D01*
G01X3345Y1083D01*
G01X3341Y1081D01*
G01X3338Y1078D01*
G01X3335Y1076D01*
G01X3332Y1073D01*
G01X3329Y1070D01*
G01X3326Y1067D01*
G01X3323Y1064D01*
G01X3321Y1061D01*
G01X3318Y1058D01*
G01X3316Y1054D01*
G01X3314Y1051D01*
G01X3312Y1047D01*
G01X3310Y1043D01*
G01X3308Y1040D01*
G01X3306Y1036D01*
G01X3305Y1032D01*
G01X3304Y1028D01*
G01X3303Y1024D01*
G01X3302Y1020D01*
G01X3301Y1016D01*
G01X3300Y1012D01*
G01X3300Y1008D01*
G01X3300Y1004D01*
G01X3300Y1000D01*
G01X3299Y1004D01*
G01X3299Y1008D01*
G01X3299Y1012D01*
G01X3298Y1016D01*
G01X3297Y1020D01*
G01X3296Y1024D01*
G01X3295Y1028D01*
G01X3294Y1032D01*
G01X3293Y1036D01*
G01X3291Y1040D01*
G01X3289Y1043D01*
G01X3287Y1047D01*
G01X3285Y1051D01*
G01X3283Y1054D01*
G01X3281Y1058D01*
G01X3278Y1061D01*
G01X3276Y1064D01*
G01X3273Y1067D01*
G01X3270Y1070D01*
G01X3267Y1073D01*
G01X3264Y1076D01*
G01X3261Y1078D01*
G01X3258Y1081D01*
G01X3254Y1083D01*
G01X3251Y1085D01*
G01X3247Y1087D01*
G01X3243Y1089D01*
G01X3240Y1091D01*
G01X3236Y1093D01*
G01X3232Y1094D01*
G01X3228Y1095D01*
G01X3224Y1096D01*
G01X3220Y1097D01*
G01X3216Y1098D01*
G01X3212Y1099D01*
G01X3208Y1099D01*
G01X3204Y1099D01*
G01X3200Y1100D01*
G01X3000Y1100D01*
G01X3000Y800D01*
G01X3300Y800D01*
G01X3300Y400D01*
G01X3000Y400D01*
G01X3000Y100D01*
G01X3200Y100D01*
G01X3204Y100D01*
G01X3208Y100D01*
G01X3212Y100D01*
G01X3216Y101D01*
G01X3220Y102D01*
G01X3224Y103D01*
G01X3228Y104D01*
G01X3232Y105D01*
G01X3236Y106D01*
G01X3240Y108D01*
G01X3243Y110D01*
G01X3247Y112D01*
G01X3251Y114D01*
G01X3254Y116D01*
G01X3258Y118D01*
G01X3261Y121D01*
G01X3264Y123D01*
G01X3267Y126D01*
G01X3270Y129D01*
G01X3273Y132D01*
G01X3276Y135D01*
G01X3278Y138D01*
G01X3281Y141D01*
G01X3283Y145D01*
G01X3285Y148D01*
G01X3287Y152D01*
G01X3289Y156D01*
G01X3291Y159D01*
G01X3293Y163D01*
G01X3294Y167D01*
G01X3295Y171D01*
G01X3296Y175D01*
G01X3297Y179D01*
G01X3298Y183D01*
G01X3299Y187D01*
G01X3299Y191D01*
G01X3299Y195D01*
G01X3300Y200D01*
G01X3300Y195D01*
G01X3300Y191D01*
G01X3300Y187D01*
G01X3301Y183D01*
G01X3302Y179D01*
G01X3303Y175D01*
G01X3304Y171D01*
G01X3305Y167D01*
G01X3306Y163D01*
G01X3308Y159D01*
G01X3310Y156D01*
G01X3312Y152D01*
G01X3314Y148D01*
G01X3316Y145D01*
G01X3318Y141D01*
G01X3321Y138D01*
G01X3323Y135D01*
G01X3326Y132D01*
G01X3329Y129D01*
G01X3332Y126D01*
G01X3335Y123D01*
G01X3338Y121D01*
G01X3341Y118D01*
G01X3345Y116D01*
G01X3348Y114D01*
G01X3352Y112D01*
G01X3356Y110D01*
G01X3359Y108D01*
G01X3363Y106D01*
G01X3367Y105D01*
G01X3371Y104D01*
G01X3375Y103D01*
G01X3379Y102D01*
G01X3383Y101D01*
G01X3387Y100D01*
G01X3391Y100D01*
G01X3395Y100D01*
G01X3400Y100D01*
G01X4200Y100D01*
G01X4204Y100D01*
G01X4208Y100D01*
G01X4212Y100D01*
G01X4216Y101D01*
G01X4220Y102D01*
G01X4224Y103D01*
G01X4228Y104D01*
G01X4232Y105D01*
G01X4236Y106D01*
G01X4240Y108D01*
G01X4243Y110D01*
G01X4247Y112D01*
G01X4251Y114D01*
G01X4254Y116D01*
G01X4258Y118D01*
G01X4261Y121D01*
G01X4264Y123D01*
G01X4267Y126D01*
G01X4270Y129D01*
G01X4273Y132D01*
G01X4276Y135D01*
G01X4278Y138D01*
G01X4281Y141D01*
G01X4283Y145D01*
G01X4285Y148D01*
G01X4287Y152D01*
G01X4289Y156D01*
G01X4291Y159D01*
G01X4293Y163D01*
G01X4294Y167D01*
G01X4295Y171D01*
G01X4296Y175D01*
G01X4297Y179D01*
G01X4298Y183D01*
G01X4299Y187D01*
G01X4299Y191D01*
G01X4299Y195D01*
G01X4300Y200D01*
G01X4300Y195D01*
G01X4300Y191D01*
G01X4300Y187D01*
G01X4301Y183D01*
G01X4302Y179D01*
G01X4303Y175D01*
G01X4304Y171D01*
G01X4305Y167D01*
G01X4306Y163D01*
G01X4308Y159D01*
G01X4310Y156D01*
G01X4312Y152D01*
G01X4314Y148D01*
G01X4316Y145D01*
G01X4318Y141D01*
G01X4321Y138D01*
G01X4323Y135D01*
G01X4326Y132D01*
G01X4329Y129D01*
G01X4332Y126D01*
G01X4335Y123D01*
G01X4338Y121D01*
G01X4341Y118D01*
G01X4345Y116D01*
G01X4348Y114D01*
G01X4352Y112D01*
G01X4356Y110D01*
G01X4359Y108D01*
G01X4363Y106D01*
G01X4367Y105D01*
G01X4371Y104D01*
G01X4375Y103D01*
G01X4379Y102D01*
G01X4383Y101D01*
G01X4387Y100D01*
G01X4391Y100D01*
G01X4395Y100D01*
G01X4400Y100D01*
G01X5200Y100D01*
G01X5204Y100D01*
G01X5208Y100D01*
G01X5212Y100D01*
G01X5216Y101D01*
G01X5220Y102D01*
G01X5224Y103D01*
G01X5228Y104D01*
G01X5232Y105D01*
G01X5236Y106D01*
G01X5240Y108D01*
G01X5243Y110D01*
G01X5247Y112D01*
G01X5251Y114D01*
G01X5254Y116D01*
G01X5258Y118D01*
G01X5261Y121D01*
G01X5264Y123D01*
G01X5267Y126D01*
G01X5270Y129D01*
G01X5273Y132D01*
G01X5276Y135D01*
G01X5278Y138D01*
G01X5281Y141D01*
G01X5283Y145D01*
G01X5285Y148D01*
G01X5287Y152D01*
G01X5289Y156D01*
G01X5291Y159D01*
G01X5293Y163D01*
G01X5294Y167D01*
G01X5295Y171D01*
G01X5296Y175D01*
G01X5297Y179D01*
G01X5298Y183D01*
G01X5299Y187D01*
G01X5299Y191D01*
G01X5299Y195D01*
G01X5300Y200D01*
G01X5300Y1000D01*
G01X5299Y1004D01*
G01X5299Y1008D01*
G01X5299Y1012D01*
G01X5298Y1016D01*
G01X5297Y1020D01*
G01X5296Y1024D01*
G01X5295Y1028D01*
G01X5294Y1032D01*
G01X5293Y1036D01*
G01X5291Y1040D01*
G01X5289Y1043D01*
G01X5287Y1047D01*
G01X5285Y1051D01*
G01X5283Y1054D01*
G01X5281Y1058D01*
G01X5278Y1061D01*
G01X5276Y1064D01*
G01X5273Y1067D01*
G01X5270Y1070D01*
G01X5267Y1073D01*
G01X5264Y1076D01*
G01X5261Y1078D01*
G01X5258Y1081D01*
G01X5254Y1083D01*
G01X5251Y1085D01*
G01X5247Y1087D01*
G01X5243Y1089D01*
G01X5240Y1091D01*
G01X5236Y1093D01*
G01X5232Y1094D01*
G01X5228Y1095D01*
G01X5224Y1096D01*
G01X5220Y1097D01*
G01X5216Y1098D01*
G01X5212Y1099D01*
G01X5208Y1099D01*
G01X5204Y1099D01*
G01X5200Y1100D01*
G01X4497Y1100D01*
G01X4857Y1459D01*
G01X6700Y1459D01*
G01X6700Y1200D01*
G01X6700Y1195D01*
G01X6700Y1191D01*
G01X6700Y1187D01*
G01X6701Y1183D01*
G01X6702Y1179D01*
G01X6703Y1175D01*
G01X6704Y1171D01*
G01X6705Y1167D01*
G01X6706Y1163D01*
G01X6708Y1159D01*
G01X6710Y1156D01*
G01X6712Y1152D01*
G01X6714Y1148D01*
G01X6716Y1145D01*
G01X6718Y1141D01*
G01X6721Y1138D01*
G01X6723Y1135D01*
G01X6726Y1132D01*
G01X6729Y1129D01*
G01X6732Y1126D01*
G01X6735Y1123D01*
G01X6738Y1121D01*
G01X6741Y1118D01*
G01X6745Y1116D01*
G01X6748Y1114D01*
G01X6752Y1112D01*
G01X6756Y1110D01*
G01X6759Y1108D01*
G01X6763Y1106D01*
G01X6767Y1105D01*
G01X6771Y1104D01*
G01X6775Y1103D01*
G01X6779Y1102D01*
G01X6783Y1101D01*
G01X6787Y1100D01*
G01X6791Y1100D01*
G01X6795Y1100D01*
G01X6800Y1100D01*
G01X6795Y1099D01*
G01X6791Y1099D01*
G01X6787Y1099D01*
G01X6783Y1098D01*
G01X6779Y1097D01*
G01X6775Y1096D01*
G01X6771Y1095D01*
G01X6767Y1094D01*
G01X6763Y1093D01*
G01X6759Y1091D01*
G01X6756Y1089D01*
G01X6752Y1087D01*
G01X6748Y1085D01*
G01X6745Y1083D01*
G01X6741Y1081D01*
G01X6738Y1078D01*
G01X6735Y1076D01*
G01X6732Y1073D01*
G01X6729Y1070D01*
G01X6726Y1067D01*
G01X6723Y1064D01*
G01X6721Y1061D01*
G01X6718Y1058D01*
G01X6716Y1054D01*
G01X6714Y1051D01*
G01X6712Y1047D01*
G01X6710Y1043D01*
G01X6708Y1040D01*
G01X6706Y1036D01*
G01X6705Y1032D01*
G01X6704Y1028D01*
G01X6703Y1024D01*
G01X6702Y1020D01*
G01X6701Y1016D01*
G01X6700Y1012D01*
G01X6700Y1008D01*
G01X6700Y1004D01*
G01X6700Y1000D01*
G01X6700Y200D01*
G01X6700Y195D01*
G01X6700Y191D01*
G01X6700Y187D01*
G01X6701Y183D01*
G01X6702Y179D01*
G01X6703Y175D01*
G01X6704Y171D01*
G01X6705Y167D01*
G01X6706Y163D01*
G01X6708Y159D01*
G01X6710Y156D01*
G01X6712Y152D01*
G01X6714Y148D01*
G01X6716Y145D01*
G01X6718Y141D01*
G01X6721Y138D01*
G01X6723Y135D01*
G01X6726Y132D01*
G01X6729Y129D01*
G01X6732Y126D01*
G01X6735Y123D01*
G01X6738Y121D01*
G01X6741Y118D01*
G01X6745Y116D01*
G01X6748Y114D01*
G01X6752Y112D01*
G01X6756Y110D01*
G01X6759Y108D01*
G01X6763Y106D01*
G01X6767Y105D01*
G01X6771Y104D01*
G01X6775Y103D01*
G01X6779Y102D01*
G01X6783Y101D01*
G01X6787Y100D01*
G01X6791Y100D01*
G01X6795Y100D01*
G01X6800Y100D01*
G37*
G36*
G01X7400Y2800D02*
G01X7700Y2800D01*
G01X7700Y3000D01*
G01X7699Y3004D01*
G01X7699Y3008D01*
G01X7699Y3012D01*
G01X7698Y3016D01*
G01X7697Y3020D01*
G01X7696Y3024D01*
G01X7695Y3028D01*
G01X7694Y3032D01*
G01X7693Y3036D01*
G01X7691Y3040D01*
G01X7689Y3043D01*
G01X7687Y3047D01*
G01X7685Y3051D01*
G01X7683Y3054D01*
G01X7681Y3058D01*
G01X7678Y3061D01*
G01X7676Y3064D01*
G01X7673Y3067D01*
G01X7670Y3070D01*
G01X7667Y3073D01*
G01X7664Y3076D01*
G01X7661Y3078D01*
G01X7658Y3081D01*
G01X7654Y3083D01*
G01X7651Y3085D01*
G01X7647Y3087D01*
G01X7643Y3089D01*
G01X7640Y3091D01*
G01X7636Y3093D01*
G01X7632Y3094D01*
G01X7628Y3095D01*
G01X7624Y3096D01*
G01X7620Y3097D01*
G01X7616Y3098D01*
G01X7612Y3099D01*
G01X7608Y3099D01*
G01X7604Y3099D01*
G01X7600Y3100D01*
G01X7604Y3100D01*
G01X7608Y3100D01*
G01X7612Y3100D01*
G01X7616Y3101D01*
G01X7620Y3102D01*
G01X7624Y3103D01*
G01X7628Y3104D01*
G01X7632Y3105D01*
G01X7636Y3106D01*
G01X7640Y3108D01*
G01X7643Y3110D01*
G01X7647Y3112D01*
G01X7651Y3114D01*
G01X7654Y3116D01*
G01X7658Y3118D01*
G01X7661Y3121D01*
G01X7664Y3123D01*
G01X7667Y3126D01*
G01X7670Y3129D01*
G01X7673Y3132D01*
G01X7676Y3135D01*
G01X7678Y3138D01*
G01X7681Y3141D01*
G01X7683Y3145D01*
G01X7685Y3148D01*
G01X7687Y3152D01*
G01X7689Y3156D01*
G01X7691Y3159D01*
G01X7693Y3163D01*
G01X7694Y3167D01*
G01X7695Y3171D01*
G01X7696Y3175D01*
G01X7697Y3179D01*
G01X7698Y3183D01*
G01X7699Y3187D01*
G01X7699Y3191D01*
G01X7699Y3195D01*
G01X7700Y3200D01*
G01X7700Y4000D01*
G01X7699Y4004D01*
G01X7699Y4008D01*
G01X7699Y4012D01*
G01X7698Y4016D01*
G01X7697Y4020D01*
G01X7696Y4024D01*
G01X7695Y4028D01*
G01X7694Y4032D01*
G01X7693Y4036D01*
G01X7691Y4040D01*
G01X7689Y4043D01*
G01X7687Y4047D01*
G01X7685Y4051D01*
G01X7683Y4054D01*
G01X7681Y4058D01*
G01X7678Y4061D01*
G01X7676Y4064D01*
G01X7673Y4067D01*
G01X7670Y4070D01*
G01X7667Y4073D01*
G01X7664Y4076D01*
G01X7661Y4078D01*
G01X7658Y4081D01*
G01X7654Y4083D01*
G01X7651Y4085D01*
G01X7647Y4087D01*
G01X7643Y4089D01*
G01X7640Y4091D01*
G01X7636Y4093D01*
G01X7632Y4094D01*
G01X7628Y4095D01*
G01X7624Y4096D01*
G01X7620Y4097D01*
G01X7616Y4098D01*
G01X7612Y4099D01*
G01X7608Y4099D01*
G01X7604Y4099D01*
G01X7600Y4100D01*
G01X6800Y4100D01*
G01X6795Y4099D01*
G01X6791Y4099D01*
G01X6787Y4099D01*
G01X6783Y4098D01*
G01X6779Y4097D01*
G01X6775Y4096D01*
G01X6771Y4095D01*
G01X6767Y4094D01*
G01X6763Y4093D01*
G01X6759Y4091D01*
G01X6756Y4089D01*
G01X6752Y4087D01*
G01X6748Y4085D01*
G01X6745Y4083D01*
G01X6741Y4081D01*
G01X6738Y4078D01*
G01X6735Y4076D01*
G01X6732Y4073D01*
G01X6729Y4070D01*
G01X6726Y4067D01*
G01X6723Y4064D01*
G01X6721Y4061D01*
G01X6718Y4058D01*
G01X6716Y4054D01*
G01X6714Y4051D01*
G01X6712Y4047D01*
G01X6710Y4043D01*
G01X6708Y4040D01*
G01X6706Y4036D01*
G01X6705Y4032D01*
G01X6704Y4028D01*
G01X6703Y4024D01*
G01X6702Y4020D01*
G01X6701Y4016D01*
G01X6700Y4012D01*
G01X6700Y4008D01*
G01X6700Y4004D01*
G01X6700Y4000D01*
G01X6700Y3740D01*
G01X4800Y3740D01*
G01X4794Y3739D01*
G01X4790Y3739D01*
G01X4785Y3739D01*
G01X4780Y3738D01*
G01X4775Y3737D01*
G01X4770Y3736D01*
G01X4765Y3735D01*
G01X4760Y3734D01*
G01X4755Y3732D01*
G01X4751Y3731D01*
G01X4746Y3729D01*
G01X4741Y3727D01*
G01X4737Y3725D01*
G01X4732Y3722D01*
G01X4728Y3720D01*
G01X4724Y3717D01*
G01X4720Y3715D01*
G01X4716Y3712D01*
G01X4712Y3709D01*
G01X4708Y3705D01*
G01X4704Y3702D01*
G01X4701Y3698D01*
G01X2102Y1100D01*
G01X1400Y1100D01*
G01X1395Y1099D01*
G01X1391Y1099D01*
G01X1387Y1099D01*
G01X1383Y1098D01*
G01X1379Y1097D01*
G01X1375Y1096D01*
G01X1371Y1095D01*
G01X1367Y1094D01*
G01X1363Y1093D01*
G01X1359Y1091D01*
G01X1356Y1089D01*
G01X1352Y1087D01*
G01X1348Y1085D01*
G01X1345Y1083D01*
G01X1341Y1081D01*
G01X1338Y1078D01*
G01X1335Y1076D01*
G01X1332Y1073D01*
G01X1329Y1070D01*
G01X1326Y1067D01*
G01X1323Y1064D01*
G01X1321Y1061D01*
G01X1318Y1058D01*
G01X1316Y1054D01*
G01X1314Y1051D01*
G01X1312Y1047D01*
G01X1310Y1043D01*
G01X1308Y1040D01*
G01X1306Y1036D01*
G01X1305Y1032D01*
G01X1304Y1028D01*
G01X1303Y1024D01*
G01X1302Y1020D01*
G01X1301Y1016D01*
G01X1300Y1012D01*
G01X1300Y1008D01*
G01X1300Y1004D01*
G01X1300Y1000D01*
G01X1300Y200D01*
G01X1300Y195D01*
G01X1300Y191D01*
G01X1300Y187D01*
G01X1301Y183D01*
G01X1302Y179D01*
G01X1303Y175D01*
G01X1304Y171D01*
G01X1305Y167D01*
G01X1306Y163D01*
G01X1308Y159D01*
G01X1310Y156D01*
G01X1312Y152D01*
G01X1314Y148D01*
G01X1316Y145D01*
G01X1318Y141D01*
G01X1321Y138D01*
G01X1323Y135D01*
G01X1326Y132D01*
G01X1329Y129D01*
G01X1332Y126D01*
G01X1335Y123D01*
G01X1338Y121D01*
G01X1341Y118D01*
G01X1345Y116D01*
G01X1348Y114D01*
G01X1352Y112D01*
G01X1356Y110D01*
G01X1359Y108D01*
G01X1363Y106D01*
G01X1367Y105D01*
G01X1371Y104D01*
G01X1375Y103D01*
G01X1379Y102D01*
G01X1383Y101D01*
G01X1387Y100D01*
G01X1391Y100D01*
G01X1395Y100D01*
G01X1400Y100D01*
G01X2200Y100D01*
G01X2204Y100D01*
G01X2208Y100D01*
G01X2212Y100D01*
G01X2216Y101D01*
G01X2220Y102D01*
G01X2224Y103D01*
G01X2228Y104D01*
G01X2232Y105D01*
G01X2236Y106D01*
G01X2240Y108D01*
G01X2243Y110D01*
G01X2247Y112D01*
G01X2251Y114D01*
G01X2254Y116D01*
G01X2258Y118D01*
G01X2261Y121D01*
G01X2264Y123D01*
G01X2267Y126D01*
G01X2270Y129D01*
G01X2273Y132D01*
G01X2276Y135D01*
G01X2278Y138D01*
G01X2281Y141D01*
G01X2283Y145D01*
G01X2285Y148D01*
G01X2287Y152D01*
G01X2289Y156D01*
G01X2291Y159D01*
G01X2293Y163D01*
G01X2294Y167D01*
G01X2295Y171D01*
G01X2296Y175D01*
G01X2297Y179D01*
G01X2298Y183D01*
G01X2299Y187D01*
G01X2299Y191D01*
G01X2299Y195D01*
G01X2300Y200D01*
G01X2300Y195D01*
G01X2300Y191D01*
G01X2300Y187D01*
G01X2301Y183D01*
G01X2302Y179D01*
G01X2303Y175D01*
G01X2304Y171D01*
G01X2305Y167D01*
G01X2306Y163D01*
G01X2308Y159D01*
G01X2310Y156D01*
G01X2312Y152D01*
G01X2314Y148D01*
G01X2316Y145D01*
G01X2318Y141D01*
G01X2321Y138D01*
G01X2323Y135D01*
G01X2326Y132D01*
G01X2329Y129D01*
G01X2332Y126D01*
G01X2335Y123D01*
G01X2338Y121D01*
G01X2341Y118D01*
G01X2345Y116D01*
G01X2348Y114D01*
G01X2352Y112D01*
G01X2356Y110D01*
G01X2359Y108D01*
G01X2363Y106D01*
G01X2367Y105D01*
G01X2371Y104D01*
G01X2375Y103D01*
G01X2379Y102D01*
G01X2383Y101D01*
G01X2387Y100D01*
G01X2391Y100D01*
G01X2395Y100D01*
G01X2400Y100D01*
G01X2600Y100D01*
G01X2600Y400D01*
G01X2300Y400D01*
G01X2300Y800D01*
G01X2600Y800D01*
G01X2600Y1100D01*
G01X2497Y1100D01*
G01X4857Y3459D01*
G01X6700Y3459D01*
G01X6700Y3200D01*
G01X6700Y3195D01*
G01X6700Y3191D01*
G01X6700Y3187D01*
G01X6701Y3183D01*
G01X6702Y3179D01*
G01X6703Y3175D01*
G01X6704Y3171D01*
G01X6705Y3167D01*
G01X6706Y3163D01*
G01X6708Y3159D01*
G01X6710Y3156D01*
G01X6712Y3152D01*
G01X6714Y3148D01*
G01X6716Y3145D01*
G01X6718Y3141D01*
G01X6721Y3138D01*
G01X6723Y3135D01*
G01X6726Y3132D01*
G01X6729Y3129D01*
G01X6732Y3126D01*
G01X6735Y3123D01*
G01X6738Y3121D01*
G01X6741Y3118D01*
G01X6745Y3116D01*
G01X6748Y3114D01*
G01X6752Y3112D01*
G01X6756Y3110D01*
G01X6759Y3108D01*
G01X6763Y3106D01*
G01X6767Y3105D01*
G01X6771Y3104D01*
G01X6775Y3103D01*
G01X6779Y3102D01*
G01X6783Y3101D01*
G01X6787Y3100D01*
G01X6791Y3100D01*
G01X6795Y3100D01*
G01X6800Y3100D01*
G01X6795Y3099D01*
G01X6791Y3099D01*
G01X6787Y3099D01*
G01X6783Y3098D01*
G01X6779Y3097D01*
G01X6775Y3096D01*
G01X6771Y3095D01*
G01X6767Y3094D01*
G01X6763Y3093D01*
G01X6759Y3091D01*
G01X6756Y3089D01*
G01X6752Y3087D01*
G01X6748Y3085D01*
G01X6745Y3083D01*
G01X6741Y3081D01*
G01X6738Y3078D01*
G01X6735Y3076D01*
G01X6732Y3073D01*
G01X6729Y3070D01*
G01X6726Y3067D01*
G01X6723Y3064D01*
G01X6721Y3061D01*
G01X6718Y3058D01*
G01X6716Y3054D01*
G01X6714Y3051D01*
G01X6712Y3047D01*
G01X6710Y3043D01*
G01X6708Y3040D01*
G01X6706Y3036D01*
G01X6705Y3032D01*
G01X6704Y3028D01*
G01X6703Y3024D01*
G01X6702Y3020D01*
G01X6701Y3016D01*
G01X6700Y3012D01*
G01X6700Y3008D01*
G01X6700Y3004D01*
G01X6700Y3000D01*
G01X6700Y2800D01*
G01X7000Y2800D01*
G01X7000Y3100D01*
G01X7400Y3100D01*
G01X7400Y2800D01*
G37*

%LPD*%
G54D11*
G01X1800Y600D02*
G01X4800Y3600D01*
G01X7200Y3600D01*
G01X3800Y600D02*
G01X4800Y1600D01*
G01X7200Y1600D01*
G54D13*
G01X7200Y3600D03*
G01X7200Y2600D03*
G01X7200Y1600D03*
G01X7200Y600D03*
G01X1800Y600D03*
G01X2800Y600D03*
G01X3800Y600D03*
G01X4800Y600D03*
M00*
M02*
