G04 ---------------------------- Layer name :BOTTOM SILK LAYER*
G04 EasyEDA v5.6.15, Sun, 02 Sep 2018 03:47:19 GMT*
G04 622b18d158854e88a3f96799d3f2dec2*
G04 Gerber Generator version 0.2*
G04 Scale: 100 percent, Rotated: No, Reflected: No *
G04 Dimensions in inches *
G04 leading zeros omitted , absolute positions ,2 integer and 4 decimal *
%FSLAX24Y24*%
%MOIN*%
G90*
G70D02*

%ADD14C,0.003000*%

%LPD*%

%LPD*%
G36*
G01X3658Y1719D02*
G01X3655Y1719D01*
G01X3649Y1720D01*
G01X3643Y1722D01*
G01X3638Y1726D01*
G01X3635Y1732D01*
G01X3635Y1735D01*
G01X3634Y1741D01*
G01X3634Y1751D01*
G01X3633Y1764D01*
G01X3633Y1780D01*
G01X3632Y1799D01*
G01X3632Y1820D01*
G01X3632Y1844D01*
G01X3632Y1870D01*
G01X3631Y1898D01*
G01X3631Y1927D01*
G01X3631Y1959D01*
G01X3630Y1991D01*
G01X3630Y2025D01*
G01X3630Y2448D01*
G01X3567Y2492D01*
G01X3542Y2509D01*
G01X3520Y2524D01*
G01X3499Y2538D01*
G01X3480Y2550D01*
G01X3461Y2561D01*
G01X3444Y2570D01*
G01X3427Y2579D01*
G01X3411Y2586D01*
G01X3394Y2592D01*
G01X3376Y2596D01*
G01X3357Y2597D01*
G01X3338Y2596D01*
G01X3319Y2592D01*
G01X3301Y2587D01*
G01X3283Y2579D01*
G01X3267Y2569D01*
G01X3252Y2557D01*
G01X3232Y2539D01*
G01X3210Y2518D01*
G01X3188Y2496D01*
G01X3167Y2474D01*
G01X3150Y2455D01*
G01X3138Y2441D01*
G01X3134Y2433D01*
G01X3132Y2429D01*
G01X3129Y2423D01*
G01X3124Y2416D01*
G01X3118Y2409D01*
G01X3111Y2400D01*
G01X3103Y2390D01*
G01X3094Y2381D01*
G01X3087Y2372D01*
G01X3080Y2363D01*
G01X3072Y2351D01*
G01X3063Y2338D01*
G01X3056Y2326D01*
G01X3050Y2314D01*
G01X3043Y2305D01*
G01X3038Y2299D01*
G01X3034Y2296D01*
G01X3032Y2296D01*
G01X3030Y2293D01*
G01X3028Y2289D01*
G01X3028Y2284D01*
G01X3028Y2280D01*
G01X3026Y2276D01*
G01X3023Y2273D01*
G01X3021Y2272D01*
G01X3012Y2265D01*
G01X3005Y2248D01*
G01X3002Y2228D01*
G01X3005Y2213D01*
G01X3009Y2198D01*
G01X3005Y2186D01*
G01X2994Y2176D01*
G01X2975Y2170D01*
G01X2962Y2166D01*
G01X2952Y2161D01*
G01X2944Y2153D01*
G01X2939Y2143D01*
G01X2932Y2126D01*
G01X2923Y2109D01*
G01X2913Y2094D01*
G01X2906Y2085D01*
G01X2898Y2073D01*
G01X2885Y2048D01*
G01X2869Y2018D01*
G01X2854Y1989D01*
G01X2850Y1982D01*
G01X2846Y1976D01*
G01X2842Y1973D01*
G01X2839Y1971D01*
G01X2836Y1970D01*
G01X2834Y1967D01*
G01X2833Y1962D01*
G01X2832Y1957D01*
G01X2831Y1950D01*
G01X2828Y1941D01*
G01X2823Y1931D01*
G01X2816Y1922D01*
G01X2810Y1913D01*
G01X2805Y1905D01*
G01X2801Y1897D01*
G01X2800Y1892D01*
G01X2800Y1888D01*
G01X2798Y1884D01*
G01X2796Y1882D01*
G01X2793Y1881D01*
G01X2790Y1879D01*
G01X2785Y1872D01*
G01X2780Y1861D01*
G01X2776Y1849D01*
G01X2770Y1834D01*
G01X2764Y1824D01*
G01X2757Y1818D01*
G01X2750Y1816D01*
G01X2744Y1817D01*
G01X2739Y1817D01*
G01X2736Y1819D01*
G01X2735Y1820D01*
G01X2739Y1830D01*
G01X2748Y1850D01*
G01X2763Y1878D01*
G01X2779Y1909D01*
G01X2795Y1940D01*
G01X2810Y1967D01*
G01X2821Y1986D01*
G01X2826Y1994D01*
G01X2829Y1996D01*
G01X2831Y1999D01*
G01X2832Y2003D01*
G01X2833Y2007D01*
G01X2833Y2012D01*
G01X2834Y2016D01*
G01X2836Y2019D01*
G01X2839Y2021D01*
G01X2843Y2025D01*
G01X2849Y2035D01*
G01X2857Y2048D01*
G01X2865Y2065D01*
G01X2873Y2081D01*
G01X2880Y2094D01*
G01X2886Y2105D01*
G01X2890Y2109D01*
G01X2901Y2127D01*
G01X2915Y2155D01*
G01X2925Y2182D01*
G01X2927Y2198D01*
G01X2926Y2201D01*
G01X2927Y2207D01*
G01X2930Y2213D01*
G01X2934Y2218D01*
G01X2939Y2226D01*
G01X2943Y2237D01*
G01X2946Y2251D01*
G01X2946Y2267D01*
G01X2947Y2287D01*
G01X2950Y2298D01*
G01X2955Y2303D01*
G01X2963Y2305D01*
G01X2970Y2303D01*
G01X2975Y2300D01*
G01X2978Y2294D01*
G01X2980Y2286D01*
G01X2980Y2277D01*
G01X2982Y2274D01*
G01X2989Y2279D01*
G01X3000Y2292D01*
G01X3020Y2317D01*
G01X3031Y2331D01*
G01X3035Y2339D01*
G01X3036Y2344D01*
G01X3037Y2348D01*
G01X3039Y2353D01*
G01X3042Y2358D01*
G01X3046Y2363D01*
G01X3054Y2372D01*
G01X3067Y2388D01*
G01X3084Y2410D01*
G01X3103Y2435D01*
G01X3122Y2459D01*
G01X3139Y2480D01*
G01X3152Y2496D01*
G01X3160Y2505D01*
G01X3166Y2510D01*
G01X3174Y2518D01*
G01X3183Y2528D01*
G01X3192Y2537D01*
G01X3210Y2556D01*
G01X3228Y2572D01*
G01X3246Y2586D01*
G01X3265Y2598D01*
G01X3284Y2607D01*
G01X3303Y2614D01*
G01X3323Y2618D01*
G01X3342Y2620D01*
G01X3363Y2620D01*
G01X3384Y2618D01*
G01X3405Y2613D01*
G01X3426Y2606D01*
G01X3446Y2598D01*
G01X3461Y2591D01*
G01X3472Y2584D01*
G01X3476Y2580D01*
G01X3476Y2578D01*
G01X3478Y2575D01*
G01X3481Y2574D01*
G01X3485Y2573D01*
G01X3493Y2570D01*
G01X3510Y2560D01*
G01X3532Y2546D01*
G01X3558Y2528D01*
G01X3583Y2511D01*
G01X3604Y2497D01*
G01X3619Y2487D01*
G01X3626Y2484D01*
G01X3627Y2487D01*
G01X3628Y2496D01*
G01X3628Y2512D01*
G01X3629Y2532D01*
G01X3630Y2556D01*
G01X3630Y2583D01*
G01X3630Y2614D01*
G01X3630Y2647D01*
G01X3630Y2810D01*
G01X2907Y2809D01*
G01X2857Y2809D01*
G01X2762Y2809D01*
G01X2717Y2809D01*
G01X2632Y2809D01*
G01X2592Y2809D01*
G01X2554Y2809D01*
G01X2518Y2809D01*
G01X2483Y2810D01*
G01X2451Y2810D01*
G01X2419Y2810D01*
G01X2390Y2811D01*
G01X2362Y2811D01*
G01X2336Y2811D01*
G01X2312Y2811D01*
G01X2290Y2812D01*
G01X2269Y2812D01*
G01X2251Y2812D01*
G01X2234Y2813D01*
G01X2218Y2813D01*
G01X2205Y2814D01*
G01X2193Y2814D01*
G01X2184Y2815D01*
G01X2176Y2815D01*
G01X2169Y2816D01*
G01X2165Y2816D01*
G01X2163Y2817D01*
G01X2150Y2822D01*
G01X2142Y2827D01*
G01X2140Y2832D01*
G01X2144Y2837D01*
G01X2154Y2842D01*
G01X2170Y2848D01*
G01X2194Y2855D01*
G01X2224Y2863D01*
G01X2234Y2864D01*
G01X2241Y2864D01*
G01X2245Y2863D01*
G01X2247Y2859D01*
G01X2247Y2858D01*
G01X2250Y2858D01*
G01X2253Y2857D01*
G01X2259Y2856D01*
G01X2265Y2856D01*
G01X2274Y2855D01*
G01X2284Y2855D01*
G01X2296Y2854D01*
G01X2310Y2854D01*
G01X2325Y2853D01*
G01X2342Y2853D01*
G01X2361Y2853D01*
G01X2382Y2852D01*
G01X2405Y2852D01*
G01X2429Y2852D01*
G01X2456Y2851D01*
G01X2484Y2851D01*
G01X2515Y2851D01*
G01X2548Y2851D01*
G01X2582Y2851D01*
G01X2619Y2851D01*
G01X2658Y2850D01*
G01X2699Y2850D01*
G01X2788Y2850D01*
G01X2836Y2850D01*
G01X3630Y2850D01*
G01X3630Y3013D01*
G01X3630Y3071D01*
G01X3630Y3115D01*
G01X3628Y3145D01*
G01X3625Y3165D01*
G01X3620Y3174D01*
G01X3612Y3175D01*
G01X3602Y3170D01*
G01X3589Y3159D01*
G01X3580Y3151D01*
G01X3567Y3142D01*
G01X3554Y3133D01*
G01X3541Y3125D01*
G01X3530Y3117D01*
G01X3519Y3111D01*
G01X3512Y3105D01*
G01X3508Y3102D01*
G01X3503Y3098D01*
G01X3493Y3091D01*
G01X3478Y3083D01*
G01X3461Y3074D01*
G01X3438Y3063D01*
G01X3414Y3055D01*
G01X3389Y3050D01*
G01X3365Y3046D01*
G01X3341Y3046D01*
G01X3318Y3048D01*
G01X3297Y3053D01*
G01X3277Y3061D01*
G01X3265Y3068D01*
G01X3251Y3078D01*
G01X3235Y3090D01*
G01X3219Y3104D01*
G01X3201Y3119D01*
G01X3183Y3136D01*
G01X3166Y3154D01*
G01X3148Y3172D01*
G01X3132Y3190D01*
G01X3117Y3208D01*
G01X3104Y3225D01*
G01X3093Y3240D01*
G01X3087Y3250D01*
G01X3080Y3260D01*
G01X3072Y3271D01*
G01X3065Y3280D01*
G01X3042Y3311D01*
G01X3026Y3335D01*
G01X3015Y3352D01*
G01X3012Y3362D01*
G01X3011Y3366D01*
G01X3009Y3368D01*
G01X3007Y3370D01*
G01X3003Y3371D01*
G01X3001Y3372D01*
G01X2998Y3375D01*
G01X2996Y3378D01*
G01X2996Y3383D01*
G01X2995Y3388D01*
G01X2993Y3392D01*
G01X2990Y3394D01*
G01X2987Y3395D01*
G01X2984Y3394D01*
G01X2982Y3390D01*
G01X2980Y3385D01*
G01X2979Y3379D01*
G01X2978Y3372D01*
G01X2975Y3367D01*
G01X2970Y3364D01*
G01X2963Y3363D01*
G01X2954Y3364D01*
G01X2950Y3370D01*
G01X2947Y3382D01*
G01X2946Y3403D01*
G01X2946Y3419D01*
G01X2944Y3432D01*
G01X2942Y3441D01*
G01X2939Y3444D01*
G01X2932Y3445D01*
G01X2916Y3446D01*
G01X2893Y3449D01*
G01X2863Y3453D01*
G01X2830Y3457D01*
G01X2793Y3461D01*
G01X2755Y3466D01*
G01X2716Y3470D01*
G01X2680Y3475D01*
G01X2646Y3479D01*
G01X2616Y3483D01*
G01X2592Y3486D01*
G01X2567Y3489D01*
G01X2540Y3493D01*
G01X2514Y3496D01*
G01X2493Y3498D01*
G01X2476Y3501D01*
G01X2460Y3505D01*
G01X2448Y3510D01*
G01X2440Y3515D01*
G01X2437Y3521D01*
G01X2443Y3525D01*
G01X2463Y3524D01*
G01X2499Y3521D01*
G01X2529Y3519D01*
G01X2560Y3515D01*
G01X2588Y3511D01*
G01X2609Y3508D01*
G01X2631Y3505D01*
G01X2661Y3501D01*
G01X2696Y3497D01*
G01X2731Y3494D01*
G01X2765Y3490D01*
G01X2799Y3486D01*
G01X2828Y3481D01*
G01X2849Y3477D01*
G01X2865Y3474D01*
G01X2882Y3471D01*
G01X2899Y3469D01*
G01X2912Y3469D01*
G01X2938Y3469D01*
G01X2916Y3511D01*
G01X2907Y3528D01*
G01X2899Y3543D01*
G01X2893Y3553D01*
G01X2890Y3558D01*
G01X2881Y3571D01*
G01X2866Y3598D01*
G01X2850Y3628D01*
G01X2837Y3653D01*
G01X2833Y3661D01*
G01X2829Y3667D01*
G01X2826Y3671D01*
G01X2823Y3672D01*
G01X2820Y3673D01*
G01X2818Y3675D01*
G01X2817Y3679D01*
G01X2816Y3683D01*
G01X2815Y3688D01*
G01X2813Y3694D01*
G01X2809Y3700D01*
G01X2805Y3704D01*
G01X2800Y3710D01*
G01X2795Y3718D01*
G01X2791Y3728D01*
G01X2788Y3738D01*
G01X2785Y3747D01*
G01X2782Y3755D01*
G01X2780Y3760D01*
G01X2777Y3761D01*
G01X2768Y3773D01*
G01X2754Y3800D01*
G01X2741Y3828D01*
G01X2735Y3846D01*
G01X2736Y3848D01*
G01X2738Y3850D01*
G01X2742Y3851D01*
G01X2747Y3851D01*
G01X2753Y3848D01*
G01X2761Y3840D01*
G01X2770Y3827D01*
G01X2779Y3812D01*
G01X2798Y3776D01*
G01X2813Y3745D01*
G01X2827Y3719D01*
G01X2838Y3698D01*
G01X2847Y3682D01*
G01X2854Y3670D01*
G01X2859Y3662D01*
G01X2864Y3657D01*
G01X2869Y3650D01*
G01X2875Y3640D01*
G01X2881Y3627D01*
G01X2887Y3614D01*
G01X2892Y3602D01*
G01X2897Y3592D01*
G01X2902Y3585D01*
G01X2905Y3582D01*
G01X2909Y3579D01*
G01X2915Y3569D01*
G01X2922Y3555D01*
G01X2930Y3538D01*
G01X2939Y3521D01*
G01X2946Y3506D01*
G01X2953Y3497D01*
G01X2957Y3493D01*
G01X2959Y3492D01*
G01X2961Y3490D01*
G01X2962Y3486D01*
G01X2963Y3481D01*
G01X2963Y3477D01*
G01X2964Y3474D01*
G01X2967Y3471D01*
G01X2972Y3468D01*
G01X2981Y3465D01*
G01X2995Y3462D01*
G01X3015Y3459D01*
G01X3040Y3455D01*
G01X3073Y3451D01*
G01X3115Y3446D01*
G01X3166Y3439D01*
G01X3227Y3432D01*
G01X3250Y3429D01*
G01X3272Y3426D01*
G01X3294Y3423D01*
G01X3315Y3421D01*
G01X3335Y3418D01*
G01X3352Y3415D01*
G01X3367Y3413D01*
G01X3378Y3411D01*
G01X3403Y3408D01*
G01X3436Y3403D01*
G01X3474Y3399D01*
G01X3512Y3395D01*
G01X3548Y3391D01*
G01X3580Y3387D01*
G01X3603Y3384D01*
G01X3616Y3382D01*
G01X3619Y3382D01*
G01X3622Y3382D01*
G01X3624Y3386D01*
G01X3626Y3392D01*
G01X3627Y3401D01*
G01X3628Y3414D01*
G01X3629Y3433D01*
G01X3630Y3456D01*
G01X3630Y3486D01*
G01X3630Y3523D01*
G01X3630Y3567D01*
G01X3630Y3619D01*
G01X3630Y3671D01*
G01X3630Y3718D01*
G01X3629Y3759D01*
G01X3628Y3793D01*
G01X3627Y3821D01*
G01X3626Y3840D01*
G01X3624Y3852D01*
G01X3623Y3855D01*
G01X3615Y3855D01*
G01X3609Y3860D01*
G01X3608Y3868D01*
G01X3611Y3874D01*
G01X3615Y3878D01*
G01X3621Y3886D01*
G01X3626Y3895D01*
G01X3631Y3906D01*
G01X3643Y3928D01*
G01X3655Y3935D01*
G01X3667Y3926D01*
G01X3680Y3903D01*
G01X3690Y3882D01*
G01X3693Y3870D01*
G01X3692Y3863D01*
G01X3684Y3858D01*
G01X3682Y3856D01*
G01X3679Y3852D01*
G01X3677Y3847D01*
G01X3676Y3839D01*
G01X3674Y3828D01*
G01X3673Y3813D01*
G01X3672Y3794D01*
G01X3672Y3770D01*
G01X3671Y3741D01*
G01X3671Y3705D01*
G01X3671Y3663D01*
G01X3671Y3614D01*
G01X3671Y3552D01*
G01X3671Y3501D01*
G01X3672Y3459D01*
G01X3673Y3428D01*
G01X3675Y3404D01*
G01X3676Y3388D01*
G01X3678Y3379D01*
G01X3681Y3376D01*
G01X3691Y3374D01*
G01X3710Y3371D01*
G01X3735Y3367D01*
G01X3765Y3363D01*
G01X3798Y3359D01*
G01X3834Y3354D01*
G01X3869Y3349D01*
G01X3898Y3345D01*
G01X3926Y3342D01*
G01X3948Y3341D01*
G01X3965Y3342D01*
G01X3976Y3345D01*
G01X3986Y3348D01*
G01X3996Y3348D01*
G01X4008Y3346D01*
G01X4021Y3341D01*
G01X4030Y3338D01*
G01X4043Y3335D01*
G01X4061Y3332D01*
G01X4082Y3328D01*
G01X4106Y3324D01*
G01X4132Y3320D01*
G01X4159Y3317D01*
G01X4188Y3313D01*
G01X4216Y3309D01*
G01X4244Y3306D01*
G01X4270Y3303D01*
G01X4294Y3299D01*
G01X4315Y3296D01*
G01X4333Y3294D01*
G01X4346Y3291D01*
G01X4355Y3289D01*
G01X4373Y3286D01*
G01X4403Y3281D01*
G01X4439Y3277D01*
G01X4479Y3273D01*
G01X4532Y3266D01*
G01X4563Y3260D01*
G01X4574Y3253D01*
G01X4567Y3245D01*
G01X4560Y3245D01*
G01X4544Y3246D01*
G01X4521Y3247D01*
G01X4493Y3250D01*
G01X4460Y3253D01*
G01X4425Y3257D01*
G01X4389Y3261D01*
G01X4353Y3266D01*
G01X4320Y3270D01*
G01X4291Y3274D01*
G01X4267Y3278D01*
G01X4251Y3281D01*
G01X4233Y3284D01*
G01X4212Y3287D01*
G01X4188Y3289D01*
G01X4166Y3290D01*
G01X4117Y3290D01*
G01X4140Y3271D01*
G01X4150Y3264D01*
G01X4158Y3256D01*
G01X4165Y3250D01*
G01X4169Y3245D01*
G01X4182Y3226D01*
G01X4193Y3212D01*
G01X4202Y3200D01*
G01X4211Y3189D01*
G01X4228Y3163D01*
G01X4246Y3129D01*
G01X4259Y3094D01*
G01X4265Y3070D01*
G01X4266Y3064D01*
G01X4267Y3058D01*
G01X4269Y3055D01*
G01X4271Y3053D01*
G01X4275Y3050D01*
G01X4278Y3040D01*
G01X4282Y3024D01*
G01X4286Y3004D01*
G01X4291Y2980D01*
G01X4295Y2954D01*
G01X4299Y2926D01*
G01X4303Y2897D01*
G01X4308Y2850D01*
G01X4438Y2850D01*
G01X4505Y2850D01*
G01X4545Y2848D01*
G01X4565Y2844D01*
G01X4572Y2837D01*
G01X4573Y2829D01*
G01X4571Y2823D01*
G01X4564Y2818D01*
G01X4552Y2815D01*
G01X4533Y2812D01*
G01X4507Y2811D01*
G01X4473Y2810D01*
G01X4431Y2809D01*
G01X4308Y2809D01*
G01X4303Y2763D01*
G01X4299Y2736D01*
G01X4296Y2709D01*
G01X4291Y2684D01*
G01X4287Y2661D01*
G01X4283Y2642D01*
G01X4279Y2627D01*
G01X4276Y2617D01*
G01X4273Y2614D01*
G01X4270Y2611D01*
G01X4267Y2603D01*
G01X4264Y2592D01*
G01X4261Y2577D01*
G01X4259Y2563D01*
G01X4255Y2551D01*
G01X4252Y2544D01*
G01X4249Y2541D01*
G01X4246Y2539D01*
G01X4242Y2534D01*
G01X4239Y2526D01*
G01X4237Y2516D01*
G01X4234Y2507D01*
G01X4231Y2499D01*
G01X4228Y2494D01*
G01X4226Y2492D01*
G01X4222Y2490D01*
G01X4217Y2485D01*
G01X4212Y2477D01*
G01X4206Y2468D01*
G01X4194Y2450D01*
G01X4180Y2432D01*
G01X4165Y2416D01*
G01X4149Y2401D01*
G01X4132Y2387D01*
G01X4113Y2375D01*
G01X4094Y2363D01*
G01X4074Y2354D01*
G01X4053Y2346D01*
G01X4032Y2339D01*
G01X4011Y2334D01*
G01X3990Y2331D01*
G01X3968Y2330D01*
G01X3943Y2331D01*
G01X3917Y2333D01*
G01X3890Y2336D01*
G01X3865Y2341D01*
G01X3841Y2346D01*
G01X3821Y2352D01*
G01X3805Y2358D01*
G01X3796Y2363D01*
G01X3786Y2366D01*
G01X3778Y2369D01*
G01X3773Y2370D01*
G01X3768Y2370D01*
G01X3764Y2371D01*
G01X3761Y2373D01*
G01X3759Y2376D01*
G01X3746Y2385D01*
G01X3719Y2399D01*
G01X3691Y2413D01*
G01X3675Y2419D01*
G01X3675Y2417D01*
G01X3674Y2411D01*
G01X3674Y2403D01*
G01X3673Y2391D01*
G01X3673Y2376D01*
G01X3673Y2359D01*
G01X3672Y2338D01*
G01X3672Y2316D01*
G01X3672Y2291D01*
G01X3672Y2264D01*
G01X3671Y2235D01*
G01X3671Y2205D01*
G01X3671Y2172D01*
G01X3671Y2139D01*
G01X3671Y2104D01*
G01X3671Y1911D01*
G01X3671Y1871D01*
G01X3670Y1838D01*
G01X3670Y1809D01*
G01X3669Y1786D01*
G01X3669Y1767D01*
G01X3668Y1752D01*
G01X3667Y1740D01*
G01X3666Y1732D01*
G01X3664Y1726D01*
G01X3663Y1722D01*
G01X3661Y1720D01*
G01X3658Y1719D01*
G37*

%LPC*%
G36*
G01X3671Y3028D02*
G01X3671Y2850D01*
G01X4275Y2850D01*
G01X4271Y2905D01*
G01X4269Y2928D01*
G01X4266Y2951D01*
G01X4263Y2975D01*
G01X4259Y2998D01*
G01X4255Y3019D01*
G01X4250Y3038D01*
G01X4246Y3054D01*
G01X4241Y3066D01*
G01X4238Y3073D01*
G01X4234Y3083D01*
G01X4231Y3093D01*
G01X4228Y3102D01*
G01X4225Y3111D01*
G01X4223Y3118D01*
G01X4220Y3123D01*
G01X4217Y3127D01*
G01X4214Y3131D01*
G01X4209Y3139D01*
G01X4203Y3150D01*
G01X4196Y3163D01*
G01X4187Y3179D01*
G01X4173Y3197D01*
G01X4158Y3216D01*
G01X4142Y3233D01*
G01X4125Y3248D01*
G01X4107Y3263D01*
G01X4087Y3276D01*
G01X4069Y3287D01*
G01X4052Y3295D01*
G01X4038Y3300D01*
G01X4028Y3302D01*
G01X4023Y3298D01*
G01X4013Y3292D01*
G01X3995Y3290D01*
G01X3976Y3293D01*
G01X3962Y3301D01*
G01X3949Y3310D01*
G01X3929Y3313D01*
G01X3901Y3310D01*
G01X3865Y3301D01*
G01X3844Y3294D01*
G01X3820Y3284D01*
G01X3793Y3273D01*
G01X3765Y3261D01*
G01X3739Y3248D01*
G01X3716Y3236D01*
G01X3697Y3226D01*
G01X3685Y3217D01*
G01X3681Y3213D01*
G01X3678Y3206D01*
G01X3675Y3195D01*
G01X3673Y3178D01*
G01X3672Y3155D01*
G01X3671Y3123D01*
G01X3671Y3081D01*
G01X3671Y3028D01*
G37*
G36*
G01X3676Y3252D02*
G01X3680Y3249D01*
G01X3687Y3251D01*
G01X3702Y3257D01*
G01X3721Y3266D01*
G01X3744Y3278D01*
G01X3768Y3289D01*
G01X3793Y3301D01*
G01X3816Y3311D01*
G01X3835Y3317D01*
G01X3870Y3328D01*
G01X3805Y3334D01*
G01X3779Y3336D01*
G01X3757Y3338D01*
G01X3740Y3341D01*
G01X3732Y3342D01*
G01X3727Y3344D01*
G01X3719Y3344D01*
G01X3708Y3345D01*
G01X3698Y3346D01*
G01X3671Y3346D01*
G01X3671Y3298D01*
G01X3671Y3278D01*
G01X3673Y3262D01*
G01X3676Y3252D01*
G37*
G36*
G01X3341Y3065D02*
G01X3356Y3063D01*
G01X3372Y3065D01*
G01X3389Y3069D01*
G01X3408Y3075D01*
G01X3428Y3085D01*
G01X3452Y3097D01*
G01X3478Y3113D01*
G01X3509Y3132D01*
G01X3543Y3154D01*
G01X3630Y3212D01*
G01X3628Y3285D01*
G01X3626Y3359D01*
G01X3573Y3364D01*
G01X3548Y3367D01*
G01X3521Y3370D01*
G01X3492Y3373D01*
G01X3461Y3376D01*
G01X3430Y3380D01*
G01X3398Y3384D01*
G01X3366Y3388D01*
G01X3334Y3392D01*
G01X3302Y3395D01*
G01X3271Y3399D01*
G01X3240Y3403D01*
G01X3212Y3407D01*
G01X3185Y3410D01*
G01X3160Y3413D01*
G01X3137Y3417D01*
G01X3117Y3419D01*
G01X3101Y3422D01*
G01X3088Y3424D01*
G01X3078Y3426D01*
G01X3073Y3427D01*
G01X3061Y3430D01*
G01X3048Y3432D01*
G01X3034Y3434D01*
G01X3022Y3435D01*
G01X3007Y3435D01*
G01X3001Y3433D01*
G01X3001Y3426D01*
G01X3005Y3413D01*
G01X3011Y3404D01*
G01X3017Y3394D01*
G01X3023Y3385D01*
G01X3030Y3378D01*
G01X3036Y3373D01*
G01X3040Y3367D01*
G01X3043Y3363D01*
G01X3044Y3359D01*
G01X3050Y3347D01*
G01X3063Y3328D01*
G01X3077Y3309D01*
G01X3087Y3299D01*
G01X3089Y3297D01*
G01X3091Y3294D01*
G01X3093Y3289D01*
G01X3093Y3285D01*
G01X3094Y3280D01*
G01X3095Y3276D01*
G01X3097Y3274D01*
G01X3099Y3273D01*
G01X3103Y3271D01*
G01X3109Y3264D01*
G01X3117Y3255D01*
G01X3126Y3242D01*
G01X3142Y3220D01*
G01X3161Y3196D01*
G01X3184Y3172D01*
G01X3207Y3148D01*
G01X3231Y3126D01*
G01X3254Y3107D01*
G01X3276Y3092D01*
G01X3294Y3081D01*
G01X3310Y3073D01*
G01X3326Y3068D01*
G01X3341Y3065D01*
G37*
G36*
G01X3939Y2353D02*
G01X3962Y2353D01*
G01X3984Y2353D01*
G01X4005Y2356D01*
G01X4026Y2360D01*
G01X4045Y2365D01*
G01X4061Y2372D01*
G01X4079Y2382D01*
G01X4098Y2394D01*
G01X4116Y2407D01*
G01X4133Y2419D01*
G01X4147Y2432D01*
G01X4158Y2443D01*
G01X4163Y2452D01*
G01X4166Y2458D01*
G01X4171Y2466D01*
G01X4177Y2474D01*
G01X4183Y2481D01*
G01X4198Y2503D01*
G01X4215Y2533D01*
G01X4227Y2564D01*
G01X4232Y2585D01*
G01X4233Y2590D01*
G01X4235Y2594D01*
G01X4237Y2597D01*
G01X4240Y2598D01*
G01X4243Y2601D01*
G01X4247Y2612D01*
G01X4252Y2629D01*
G01X4256Y2650D01*
G01X4261Y2675D01*
G01X4265Y2702D01*
G01X4268Y2730D01*
G01X4271Y2758D01*
G01X4275Y2809D01*
G01X3671Y2809D01*
G01X3671Y2552D01*
G01X3671Y2521D01*
G01X3673Y2497D01*
G01X3676Y2478D01*
G01X3680Y2463D01*
G01X3686Y2451D01*
G01X3696Y2441D01*
G01X3707Y2432D01*
G01X3723Y2424D01*
G01X3742Y2415D01*
G01X3765Y2403D01*
G01X3790Y2392D01*
G01X3816Y2382D01*
G01X3841Y2373D01*
G01X3866Y2366D01*
G01X3891Y2360D01*
G01X3915Y2356D01*
G01X3939Y2353D01*
G37*

%LPD*%
G36*
G01X2759Y2142D02*
G01X2743Y2142D01*
G01X2730Y2142D01*
G01X2723Y2146D01*
G01X2719Y2153D01*
G01X2718Y2179D01*
G01X2715Y2187D01*
G01X2707Y2190D01*
G01X2692Y2191D01*
G01X2673Y2194D01*
G01X2655Y2200D01*
G01X2642Y2209D01*
G01X2637Y2219D01*
G01X2642Y2230D01*
G01X2657Y2238D01*
G01X2677Y2245D01*
G01X2700Y2247D01*
G01X2719Y2247D01*
G01X2730Y2244D01*
G01X2734Y2238D01*
G01X2735Y2228D01*
G01X2736Y2217D01*
G01X2740Y2205D01*
G01X2745Y2191D01*
G01X2751Y2178D01*
G01X2763Y2157D01*
G01X2766Y2146D01*
G01X2759Y2142D01*
G37*

%LPC*%
G36*
G01X2688Y2209D02*
G01X2694Y2208D01*
G01X2699Y2210D01*
G01X2701Y2214D01*
G01X2703Y2219D01*
G01X2699Y2227D01*
G01X2690Y2230D01*
G01X2681Y2227D01*
G01X2676Y2219D01*
G01X2676Y2216D01*
G01X2678Y2213D01*
G01X2683Y2210D01*
G01X2688Y2209D01*
G37*

%LPD*%
G36*
G01X2849Y2142D02*
G01X2834Y2142D01*
G01X2815Y2142D01*
G01X2802Y2145D01*
G01X2794Y2148D01*
G01X2789Y2154D01*
G01X2788Y2160D01*
G01X2790Y2163D01*
G01X2796Y2165D01*
G01X2805Y2166D01*
G01X2825Y2166D01*
G01X2809Y2184D01*
G01X2796Y2203D01*
G01X2792Y2220D01*
G01X2797Y2234D01*
G01X2810Y2242D01*
G01X2826Y2246D01*
G01X2838Y2247D01*
G01X2848Y2244D01*
G01X2859Y2239D01*
G01X2871Y2230D01*
G01X2873Y2223D01*
G01X2865Y2219D01*
G01X2849Y2220D01*
G01X2837Y2222D01*
G01X2830Y2221D01*
G01X2826Y2218D01*
G01X2825Y2212D01*
G01X2826Y2205D01*
G01X2832Y2196D01*
G01X2840Y2186D01*
G01X2849Y2176D01*
G01X2859Y2166D01*
G01X2866Y2157D01*
G01X2871Y2151D01*
G01X2873Y2147D01*
G01X2870Y2145D01*
G01X2862Y2143D01*
G01X2849Y2142D01*
G37*

%LPC*%

%LPD*%
G36*
G01X2972Y2371D02*
G01X2965Y2371D01*
G01X2958Y2375D01*
G01X2953Y2383D01*
G01X2950Y2398D01*
G01X2948Y2421D01*
G01X2947Y2446D01*
G01X2949Y2460D01*
G01X2953Y2466D01*
G01X2963Y2467D01*
G01X2971Y2466D01*
G01X2976Y2459D01*
G01X2979Y2444D01*
G01X2979Y2418D01*
G01X2979Y2392D01*
G01X2977Y2378D01*
G01X2972Y2371D01*
G37*

%LPC*%

%LPD*%
G36*
G01X2972Y2534D02*
G01X2965Y2534D01*
G01X2953Y2550D01*
G01X2947Y2582D01*
G01X2948Y2615D01*
G01X2958Y2633D01*
G01X2963Y2634D01*
G01X2967Y2634D01*
G01X2971Y2634D01*
G01X2974Y2632D01*
G01X2976Y2627D01*
G01X2978Y2615D01*
G01X2979Y2598D01*
G01X2979Y2579D01*
G01X2979Y2555D01*
G01X2977Y2540D01*
G01X2972Y2534D01*
G37*

%LPC*%

%LPD*%
G36*
G01X2975Y2705D02*
G01X2969Y2699D01*
G01X2958Y2701D01*
G01X2953Y2705D01*
G01X2949Y2715D01*
G01X2947Y2731D01*
G01X2946Y2753D01*
G01X2947Y2778D01*
G01X2949Y2793D01*
G01X2954Y2800D01*
G01X2963Y2801D01*
G01X2971Y2800D01*
G01X2976Y2793D01*
G01X2979Y2779D01*
G01X2979Y2754D01*
G01X2978Y2723D01*
G01X2975Y2705D01*
G37*

%LPC*%

%LPD*%
G36*
G01X2135Y2723D02*
G01X2113Y2721D01*
G01X2088Y2723D01*
G01X2073Y2728D01*
G01X2069Y2734D01*
G01X2079Y2741D01*
G01X2089Y2747D01*
G01X2091Y2753D01*
G01X2085Y2759D01*
G01X2072Y2764D01*
G01X2064Y2766D01*
G01X2057Y2770D01*
G01X2053Y2773D01*
G01X2051Y2777D01*
G01X2055Y2786D01*
G01X2065Y2790D01*
G01X2077Y2790D01*
G01X2088Y2785D01*
G01X2094Y2781D01*
G01X2097Y2779D01*
G01X2100Y2780D01*
G01X2100Y2784D01*
G01X2105Y2790D01*
G01X2116Y2793D01*
G01X2128Y2791D01*
G01X2137Y2785D01*
G01X2138Y2782D01*
G01X2138Y2779D01*
G01X2136Y2777D01*
G01X2133Y2777D01*
G01X2126Y2772D01*
G01X2125Y2761D01*
G01X2128Y2749D01*
G01X2137Y2741D01*
G01X2148Y2734D01*
G01X2147Y2728D01*
G01X2135Y2723D01*
G37*

%LPC*%

%LPD*%
G36*
G01X2971Y2868D02*
G01X2963Y2866D01*
G01X2954Y2868D01*
G01X2949Y2874D01*
G01X2947Y2889D01*
G01X2946Y2915D01*
G01X2947Y2941D01*
G01X2949Y2956D01*
G01X2954Y2962D01*
G01X2963Y2964D01*
G01X2971Y2962D01*
G01X2976Y2956D01*
G01X2979Y2941D01*
G01X2979Y2915D01*
G01X2979Y2889D01*
G01X2976Y2874D01*
G01X2971Y2868D01*
G37*

%LPC*%

%LPD*%
G36*
G01X2975Y3039D02*
G01X2969Y3033D01*
G01X2958Y3034D01*
G01X2953Y3039D01*
G01X2949Y3048D01*
G01X2947Y3063D01*
G01X2946Y3083D01*
G01X2947Y3106D01*
G01X2949Y3119D01*
G01X2954Y3125D01*
G01X2963Y3127D01*
G01X2971Y3125D01*
G01X2976Y3119D01*
G01X2979Y3106D01*
G01X2979Y3083D01*
G01X2978Y3055D01*
G01X2975Y3039D01*
G37*

%LPC*%

%LPD*%
G36*
G01X2978Y3207D02*
G01X2976Y3192D01*
G01X2973Y3192D01*
G01X2969Y3193D01*
G01X2965Y3195D01*
G01X2959Y3197D01*
G01X2950Y3213D01*
G01X2946Y3244D01*
G01X2949Y3275D01*
G01X2958Y3292D01*
G01X2963Y3293D01*
G01X2967Y3294D01*
G01X2971Y3293D01*
G01X2974Y3292D01*
G01X2978Y3274D01*
G01X2979Y3240D01*
G01X2978Y3207D01*
G37*

%LPC*%

%LPD*%
G36*
G01X3948Y3355D02*
G01X3933Y3355D01*
G01X3921Y3355D01*
G01X3915Y3358D01*
G01X3911Y3363D01*
G01X3911Y3372D01*
G01X3909Y3381D01*
G01X3905Y3388D01*
G01X3897Y3392D01*
G01X3884Y3396D01*
G01X3863Y3402D01*
G01X3849Y3410D01*
G01X3843Y3421D01*
G01X3843Y3437D01*
G01X3846Y3447D01*
G01X3853Y3453D01*
G01X3866Y3457D01*
G01X3889Y3459D01*
G01X3913Y3460D01*
G01X3925Y3459D01*
G01X3929Y3454D01*
G01X3928Y3446D01*
G01X3928Y3438D01*
G01X3930Y3426D01*
G01X3934Y3411D01*
G01X3940Y3397D01*
G01X3951Y3373D01*
G01X3954Y3360D01*
G01X3948Y3355D01*
G37*

%LPC*%
G36*
G01X3880Y3421D02*
G01X3882Y3420D01*
G01X3886Y3421D01*
G01X3888Y3423D01*
G01X3890Y3427D01*
G01X3891Y3432D01*
G01X3890Y3437D01*
G01X3888Y3440D01*
G01X3886Y3443D01*
G01X3882Y3444D01*
G01X3880Y3443D01*
G01X3877Y3440D01*
G01X3875Y3437D01*
G01X3875Y3432D01*
G01X3875Y3427D01*
G01X3877Y3423D01*
G01X3880Y3421D01*
G37*

%LPD*%
G36*
G01X3822Y3903D02*
G01X3810Y3900D01*
G01X3787Y3909D01*
G01X3760Y3933D01*
G01X3738Y3961D01*
G01X3728Y3984D01*
G01X3728Y3994D01*
G01X3731Y3999D01*
G01X3734Y4001D01*
G01X3740Y4001D01*
G01X3744Y3998D01*
G01X3747Y3994D01*
G01X3748Y3990D01*
G01X3747Y3986D01*
G01X3746Y3981D01*
G01X3747Y3976D01*
G01X3749Y3972D01*
G01X3752Y3969D01*
G01X3755Y3969D01*
G01X3758Y3970D01*
G01X3760Y3974D01*
G01X3761Y3980D01*
G01X3764Y3990D01*
G01X3773Y3998D01*
G01X3785Y4001D01*
G01X3800Y4000D01*
G01X3803Y3997D01*
G01X3805Y3994D01*
G01X3805Y3991D01*
G01X3802Y3986D01*
G01X3799Y3981D01*
G01X3796Y3973D01*
G01X3794Y3963D01*
G01X3792Y3953D01*
G01X3791Y3940D01*
G01X3793Y3932D01*
G01X3798Y3928D01*
G01X3807Y3926D01*
G01X3820Y3920D01*
G01X3825Y3912D01*
G01X3822Y3903D01*
G37*

%LPC*%

%LPD*%
G54D14*
G01X2961Y1431D02*
G01X2975Y1459D01*
G01X3002Y1486D01*
G01X3030Y1499D01*
G01X3084Y1499D01*
G01X3111Y1486D01*
G01X3139Y1459D01*
G01X3152Y1431D01*
G01X3166Y1390D01*
G01X3166Y1322D01*
G01X3152Y1281D01*
G01X3139Y1254D01*
G01X3111Y1227D01*
G01X3084Y1213D01*
G01X3030Y1213D01*
G01X3002Y1227D01*
G01X2975Y1254D01*
G01X2961Y1281D01*
G01X2961Y1322D01*
G01X3030Y1322D02*
G01X2961Y1322D01*
G01X2871Y1499D02*
G01X2871Y1213D01*
G01X2871Y1499D02*
G01X2680Y1213D01*
G01X2680Y1499D02*
G01X2680Y1213D01*
G01X2590Y1499D02*
G01X2590Y1213D01*
G01X2590Y1499D02*
G01X2495Y1499D01*
G01X2454Y1486D01*
G01X2427Y1459D01*
G01X2413Y1431D01*
G01X2400Y1390D01*
G01X2400Y1322D01*
G01X2413Y1281D01*
G01X2427Y1254D01*
G01X2454Y1227D01*
G01X2495Y1213D01*
G01X2590Y1213D01*
G01X2180Y1500D02*
G01X2030Y1500D01*
G01X2111Y1390D01*
G01X2070Y1390D01*
G01X2043Y1377D01*
G01X2030Y1363D01*
G01X2016Y1322D01*
G01X2016Y1295D01*
G01X2030Y1254D01*
G01X2057Y1227D01*
G01X2098Y1213D01*
G01X2139Y1213D01*
G01X2180Y1227D01*
G01X2193Y1240D01*
G01X2207Y1268D01*
G01X1926Y1500D02*
G01X1817Y1213D01*
G01X1708Y1500D02*
G01X1817Y1213D01*
G01X1590Y1500D02*
G01X1440Y1500D01*
G01X1522Y1390D01*
G01X1481Y1390D01*
G01X1454Y1377D01*
G01X1440Y1363D01*
G01X1427Y1322D01*
G01X1427Y1295D01*
G01X1440Y1254D01*
G01X1468Y1227D01*
G01X1509Y1213D01*
G01X1550Y1213D01*
G01X1590Y1227D01*
G01X1604Y1240D01*
G01X1618Y1268D01*
G01X3948Y1459D02*
G01X3975Y1486D01*
G01X4016Y1499D01*
G01X4070Y1499D01*
G01X4111Y1486D01*
G01X4139Y1459D01*
G01X4139Y1431D01*
G01X4125Y1404D01*
G01X4111Y1390D01*
G01X4084Y1377D01*
G01X4002Y1349D01*
G01X3975Y1336D01*
G01X3961Y1322D01*
G01X3948Y1295D01*
G01X3948Y1254D01*
G01X3975Y1227D01*
G01X4016Y1213D01*
G01X4070Y1213D01*
G01X4111Y1227D01*
G01X4139Y1254D01*
G01X3653Y1431D02*
G01X3667Y1459D01*
G01X3694Y1486D01*
G01X3721Y1499D01*
G01X3776Y1499D01*
G01X3803Y1486D01*
G01X3830Y1459D01*
G01X3844Y1431D01*
G01X3858Y1390D01*
G01X3858Y1322D01*
G01X3844Y1281D01*
G01X3830Y1254D01*
G01X3803Y1227D01*
G01X3776Y1213D01*
G01X3721Y1213D01*
G01X3694Y1227D01*
G01X3667Y1254D01*
G01X3653Y1281D01*
G01X3563Y1499D02*
G01X3563Y1213D01*
G01X3563Y1213D02*
G01X3400Y1213D01*
G01X4989Y1459D02*
G01X5016Y1486D01*
G01X5057Y1500D01*
G01X5111Y1500D01*
G01X5152Y1486D01*
G01X5180Y1459D01*
G01X5180Y1431D01*
G01X5166Y1404D01*
G01X5152Y1390D01*
G01X5125Y1377D01*
G01X5043Y1350D01*
G01X5016Y1336D01*
G01X5002Y1322D01*
G01X4989Y1295D01*
G01X4989Y1254D01*
G01X5016Y1227D01*
G01X5057Y1213D01*
G01X5111Y1213D01*
G01X5152Y1227D01*
G01X5180Y1254D01*
G01X4899Y1500D02*
G01X4899Y1213D01*
G01X4899Y1500D02*
G01X4803Y1500D01*
G01X4762Y1486D01*
G01X4735Y1459D01*
G01X4721Y1431D01*
G01X4708Y1390D01*
G01X4708Y1322D01*
G01X4721Y1281D01*
G01X4735Y1254D01*
G01X4762Y1227D01*
G01X4803Y1213D01*
G01X4899Y1213D01*
G01X4509Y1500D02*
G01X4618Y1213D01*
G01X4509Y1500D02*
G01X4400Y1213D01*
G01X4577Y1309D02*
G01X4440Y1309D01*
G01X6409Y1722D02*
G01X6436Y1750D01*
G01X6477Y1763D01*
G01X6531Y1763D01*
G01X6572Y1750D01*
G01X6600Y1722D01*
G01X6600Y1695D01*
G01X6586Y1668D01*
G01X6572Y1654D01*
G01X6545Y1640D01*
G01X6463Y1613D01*
G01X6436Y1600D01*
G01X6422Y1586D01*
G01X6409Y1559D01*
G01X6409Y1518D01*
G01X6436Y1490D01*
G01X6477Y1477D01*
G01X6531Y1477D01*
G01X6572Y1490D01*
G01X6600Y1518D01*
G01X6114Y1695D02*
G01X6128Y1722D01*
G01X6155Y1750D01*
G01X6182Y1763D01*
G01X6237Y1763D01*
G01X6264Y1750D01*
G01X6291Y1722D01*
G01X6305Y1695D01*
G01X6319Y1654D01*
G01X6319Y1586D01*
G01X6305Y1545D01*
G01X6291Y1518D01*
G01X6264Y1490D01*
G01X6237Y1477D01*
G01X6182Y1477D01*
G01X6155Y1490D01*
G01X6128Y1518D01*
G01X6114Y1545D01*
G01X6024Y1763D02*
G01X6024Y1477D01*
G01X6024Y1477D02*
G01X5860Y1477D01*
G01X6572Y3751D02*
G01X6422Y3751D01*
G01X6504Y3642D01*
G01X6463Y3642D01*
G01X6436Y3628D01*
G01X6422Y3615D01*
G01X6409Y3574D01*
G01X6409Y3547D01*
G01X6422Y3506D01*
G01X6450Y3478D01*
G01X6490Y3465D01*
G01X6531Y3465D01*
G01X6572Y3478D01*
G01X6586Y3492D01*
G01X6600Y3519D01*
G01X6319Y3751D02*
G01X6210Y3465D01*
G01X6100Y3751D02*
G01X6210Y3465D01*
G01X5983Y3751D02*
G01X5833Y3751D01*
G01X5915Y3642D01*
G01X5874Y3642D01*
G01X5847Y3628D01*
G01X5833Y3615D01*
G01X5820Y3574D01*
G01X5820Y3547D01*
G01X5833Y3506D01*
G01X5860Y3478D01*
G01X5901Y3465D01*
G01X5942Y3465D01*
G01X5983Y3478D01*
G01X5997Y3492D01*
G01X6010Y3519D01*
G01X6395Y2689D02*
G01X6409Y2716D01*
G01X6436Y2744D01*
G01X6463Y2757D01*
G01X6518Y2757D01*
G01X6545Y2744D01*
G01X6572Y2716D01*
G01X6586Y2689D01*
G01X6600Y2648D01*
G01X6600Y2580D01*
G01X6586Y2539D01*
G01X6572Y2512D01*
G01X6545Y2484D01*
G01X6518Y2471D01*
G01X6463Y2471D01*
G01X6436Y2484D01*
G01X6409Y2512D01*
G01X6395Y2539D01*
G01X6395Y2580D01*
G01X6463Y2580D02*
G01X6395Y2580D01*
G01X6305Y2757D02*
G01X6305Y2471D01*
G01X6305Y2757D02*
G01X6114Y2471D01*
G01X6114Y2757D02*
G01X6114Y2471D01*
G01X6024Y2757D02*
G01X6024Y2471D01*
G01X6024Y2757D02*
G01X5929Y2757D01*
G01X5888Y2744D01*
G01X5860Y2716D01*
G01X5847Y2689D01*
G01X5833Y2648D01*
G01X5833Y2580D01*
G01X5847Y2539D01*
G01X5860Y2512D01*
G01X5888Y2484D01*
G01X5929Y2471D01*
G01X6024Y2471D01*
G01X6409Y728D02*
G01X6436Y756D01*
G01X6477Y769D01*
G01X6531Y769D01*
G01X6572Y756D01*
G01X6600Y728D01*
G01X6600Y701D01*
G01X6586Y674D01*
G01X6572Y660D01*
G01X6545Y646D01*
G01X6463Y619D01*
G01X6436Y606D01*
G01X6422Y592D01*
G01X6409Y565D01*
G01X6409Y524D01*
G01X6436Y496D01*
G01X6477Y483D01*
G01X6531Y483D01*
G01X6572Y496D01*
G01X6600Y524D01*
G01X6319Y769D02*
G01X6319Y483D01*
G01X6319Y769D02*
G01X6223Y769D01*
G01X6182Y756D01*
G01X6155Y728D01*
G01X6141Y701D01*
G01X6128Y660D01*
G01X6128Y592D01*
G01X6141Y551D01*
G01X6155Y524D01*
G01X6182Y496D01*
G01X6223Y483D01*
G01X6319Y483D01*
G01X5929Y769D02*
G01X6038Y483D01*
G01X5929Y769D02*
G01X5820Y483D01*
G01X5997Y578D02*
G01X5860Y578D01*
G01X436Y3800D02*
G01X627Y3800D01*
G01X536Y3800D02*
G01X509Y3772D01*
G01X500Y3754D01*
G01X500Y3727D01*
G01X509Y3709D01*
G01X536Y3700D01*
G01X627Y3700D01*
G01X436Y3612D02*
G01X590Y3612D01*
G01X618Y3603D01*
G01X627Y3585D01*
G01X627Y3567D01*
G01X500Y3640D02*
G01X500Y3576D01*
G01X436Y3480D02*
G01X590Y3480D01*
G01X618Y3470D01*
G01X627Y3452D01*
G01X627Y3434D01*
G01X500Y3507D02*
G01X500Y3443D01*
G01X500Y3374D02*
G01X690Y3374D01*
G01X527Y3374D02*
G01X509Y3356D01*
G01X500Y3338D01*
G01X500Y3310D01*
G01X509Y3292D01*
G01X527Y3274D01*
G01X554Y3265D01*
G01X572Y3265D01*
G01X600Y3274D01*
G01X618Y3292D01*
G01X627Y3310D01*
G01X627Y3338D01*
G01X618Y3356D01*
G01X600Y3374D01*
G01X527Y3105D02*
G01X509Y3114D01*
G01X500Y3141D01*
G01X500Y3169D01*
G01X509Y3196D01*
G01X527Y3205D01*
G01X545Y3196D01*
G01X554Y3178D01*
G01X563Y3132D01*
G01X572Y3114D01*
G01X590Y3105D01*
G01X600Y3105D01*
G01X618Y3114D01*
G01X627Y3141D01*
G01X627Y3169D01*
G01X618Y3196D01*
G01X600Y3205D01*
G01X518Y3036D02*
G01X527Y3045D01*
G01X536Y3036D01*
G01X527Y3027D01*
G01X518Y3036D01*
G01X581Y3036D02*
G01X590Y3045D01*
G01X600Y3036D01*
G01X590Y3027D01*
G01X581Y3036D01*
G01X400Y2803D02*
G01X690Y2967D01*
G01X400Y2580D02*
G01X690Y2743D01*
G01X436Y2519D02*
G01X627Y2519D01*
G01X527Y2519D02*
G01X509Y2501D01*
G01X500Y2483D01*
G01X500Y2456D01*
G01X509Y2438D01*
G01X527Y2419D01*
G01X554Y2410D01*
G01X572Y2410D01*
G01X600Y2419D01*
G01X618Y2438D01*
G01X627Y2456D01*
G01X627Y2483D01*
G01X618Y2501D01*
G01X600Y2519D01*
G01X436Y2350D02*
G01X445Y2341D01*
G01X436Y2332D01*
G01X427Y2341D01*
G01X436Y2350D01*
G01X500Y2341D02*
G01X627Y2341D01*
G01X436Y2245D02*
G01X590Y2245D01*
G01X618Y2236D01*
G01X627Y2218D01*
G01X627Y2200D01*
G01X500Y2272D02*
G01X500Y2209D01*
G01X581Y2130D02*
G01X590Y2140D01*
G01X600Y2130D01*
G01X590Y2121D01*
G01X581Y2130D01*
G01X436Y2061D02*
G01X627Y2061D01*
G01X500Y1992D02*
G01X627Y1938D01*
G01X500Y1883D02*
G01X627Y1938D01*
G01X663Y1956D01*
G01X681Y1974D01*
G01X690Y1992D01*
G01X690Y2001D01*
G01X400Y1659D02*
G01X690Y1823D01*
G01X481Y1590D02*
G01X472Y1590D01*
G01X454Y1581D01*
G01X445Y1572D01*
G01X436Y1554D01*
G01X436Y1518D01*
G01X445Y1500D01*
G01X454Y1490D01*
G01X472Y1481D01*
G01X490Y1481D01*
G01X509Y1490D01*
G01X536Y1509D01*
G01X627Y1600D01*
G01X627Y1472D01*
G01X481Y1276D02*
G01X463Y1285D01*
G01X445Y1303D01*
G01X436Y1321D01*
G01X436Y1358D01*
G01X445Y1376D01*
G01X463Y1394D01*
G01X481Y1403D01*
G01X509Y1412D01*
G01X554Y1412D01*
G01X581Y1403D01*
G01X600Y1394D01*
G01X618Y1376D01*
G01X627Y1358D01*
G01X627Y1321D01*
G01X618Y1303D01*
G01X600Y1285D01*
G01X581Y1276D01*
G01X527Y1107D02*
G01X509Y1125D01*
G01X500Y1143D01*
G01X500Y1170D01*
G01X509Y1189D01*
G01X527Y1207D01*
G01X554Y1216D01*
G01X572Y1216D01*
G01X600Y1207D01*
G01X618Y1189D01*
G01X627Y1170D01*
G01X627Y1143D01*
G01X618Y1125D01*
G01X600Y1107D01*
G01X500Y929D02*
G01X527Y938D01*
G01X545Y956D01*
G01X554Y983D01*
G01X554Y992D01*
G01X545Y1019D01*
G01X527Y1038D01*
G01X500Y1047D01*
G01X490Y1047D01*
G01X463Y1038D01*
G01X445Y1019D01*
G01X436Y992D01*
G01X436Y983D01*
G01X445Y956D01*
G01X463Y938D01*
G01X500Y929D01*
G01X545Y929D01*
G01X590Y938D01*
G01X618Y956D01*
G01X627Y983D01*
G01X627Y1001D01*
G01X618Y1029D01*
G01X600Y1038D01*
G01X500Y869D02*
G01X627Y769D01*
G01X500Y769D02*
G01X627Y869D01*
G01X436Y690D02*
G01X436Y590D01*
G01X509Y645D01*
G01X509Y618D01*
G01X518Y600D01*
G01X527Y590D01*
G01X554Y581D01*
G01X572Y581D01*
G01X600Y590D01*
G01X618Y609D01*
G01X627Y636D01*
G01X627Y663D01*
G01X618Y690D01*
G01X609Y700D01*
G01X590Y709D01*
G01X500Y421D02*
G01X627Y521D01*
G01X500Y521D02*
G01X500Y421D01*
G01X627Y521D02*
G01X627Y421D01*
M00*
M02*
