G04 ---------------------------- Layer name :TOP SILK LAYER*
G04 EasyEDA v5.6.15, Sun, 02 Sep 2018 03:47:19 GMT*
G04 622b18d158854e88a3f96799d3f2dec2*
G04 Gerber Generator version 0.2*
G04 Scale: 100 percent, Rotated: No, Reflected: No *
G04 Dimensions in inches *
G04 leading zeros omitted , absolute positions ,2 integer and 4 decimal *
%FSLAX24Y24*%
%MOIN*%
G90*
G70D02*

%ADD10C,0.010000*%
%ADD14C,0.003000*%

%LPD*%
G54D10*
G01X6700Y4100D02*
G01X7700Y4100D01*
G01X7700Y100D01*
G01X6700Y100D01*
G01X6700Y4100D01*
G01X1300Y100D02*
G01X1300Y1100D01*
G01X5300Y1100D01*
G01X5300Y100D01*
G01X1300Y100D01*
G01X2609Y3800D02*
G01X2609Y1900D01*
G01X3850Y1900D01*
G01X3850Y3800D01*
G01X3850Y3800D02*
G01X3480Y3800D01*
G01X2980Y3800D02*
G01X2609Y3800D01*
G54D14*
G01X1300Y1563D02*
G01X1409Y1276D01*
G01X1517Y1563D02*
G01X1409Y1276D01*
G01X1813Y1494D02*
G01X1798Y1522D01*
G01X1771Y1549D01*
G01X1744Y1563D01*
G01X1690Y1563D01*
G01X1663Y1549D01*
G01X1634Y1522D01*
G01X1621Y1494D01*
G01X1607Y1454D01*
G01X1607Y1385D01*
G01X1621Y1344D01*
G01X1634Y1317D01*
G01X1663Y1290D01*
G01X1690Y1276D01*
G01X1744Y1276D01*
G01X1771Y1290D01*
G01X1798Y1317D01*
G01X1813Y1344D01*
G01X2107Y1494D02*
G01X2094Y1522D01*
G01X2065Y1549D01*
G01X2038Y1563D01*
G01X1984Y1563D01*
G01X1957Y1549D01*
G01X1930Y1522D01*
G01X1915Y1494D01*
G01X1903Y1454D01*
G01X1903Y1385D01*
G01X1915Y1344D01*
G01X1930Y1317D01*
G01X1957Y1290D01*
G01X1984Y1276D01*
G01X2038Y1276D01*
G01X2065Y1290D01*
G01X2094Y1317D01*
G01X2107Y1344D01*
G01X2605Y1494D02*
G01X2590Y1522D01*
G01X2563Y1549D01*
G01X2536Y1563D01*
G01X2482Y1563D01*
G01X2455Y1549D01*
G01X2426Y1522D01*
G01X2413Y1494D01*
G01X2400Y1454D01*
G01X2400Y1385D01*
G01X2413Y1344D01*
G01X2426Y1317D01*
G01X2455Y1290D01*
G01X2482Y1276D01*
G01X2536Y1276D01*
G01X2563Y1290D01*
G01X2590Y1317D01*
G01X2605Y1344D01*
G01X2605Y1385D01*
G01X2536Y1385D02*
G01X2605Y1385D01*
G01X2694Y1563D02*
G01X2694Y1276D01*
G01X2694Y1563D02*
G01X2884Y1276D01*
G01X2884Y1563D02*
G01X2884Y1276D01*
G01X2975Y1563D02*
G01X2975Y1276D01*
G01X2975Y1563D02*
G01X3071Y1563D01*
G01X3111Y1549D01*
G01X3138Y1522D01*
G01X3153Y1494D01*
G01X3165Y1454D01*
G01X3165Y1385D01*
G01X3153Y1344D01*
G01X3138Y1317D01*
G01X3111Y1290D01*
G01X3071Y1276D01*
G01X2975Y1276D01*
G01X3590Y1522D02*
G01X3563Y1549D01*
G01X3523Y1563D01*
G01X3467Y1563D01*
G01X3426Y1549D01*
G01X3400Y1522D01*
G01X3400Y1494D01*
G01X3413Y1467D01*
G01X3426Y1454D01*
G01X3455Y1440D01*
G01X3536Y1413D01*
G01X3563Y1399D01*
G01X3576Y1385D01*
G01X3590Y1358D01*
G01X3590Y1317D01*
G01X3563Y1290D01*
G01X3523Y1276D01*
G01X3467Y1276D01*
G01X3426Y1290D01*
G01X3400Y1317D01*
G01X3884Y1494D02*
G01X3871Y1522D01*
G01X3844Y1549D01*
G01X3817Y1563D01*
G01X3763Y1563D01*
G01X3734Y1549D01*
G01X3707Y1522D01*
G01X3694Y1494D01*
G01X3680Y1454D01*
G01X3680Y1385D01*
G01X3694Y1344D01*
G01X3707Y1317D01*
G01X3734Y1290D01*
G01X3763Y1276D01*
G01X3817Y1276D01*
G01X3844Y1290D01*
G01X3871Y1317D01*
G01X3884Y1344D01*
G01X3975Y1563D02*
G01X3975Y1276D01*
G01X3975Y1276D02*
G01X4138Y1276D01*
G01X4590Y1522D02*
G01X4563Y1549D01*
G01X4523Y1563D01*
G01X4467Y1563D01*
G01X4426Y1549D01*
G01X4400Y1522D01*
G01X4400Y1494D01*
G01X4413Y1467D01*
G01X4426Y1454D01*
G01X4455Y1440D01*
G01X4536Y1413D01*
G01X4563Y1399D01*
G01X4576Y1385D01*
G01X4590Y1358D01*
G01X4590Y1317D01*
G01X4563Y1290D01*
G01X4523Y1276D01*
G01X4467Y1276D01*
G01X4426Y1290D01*
G01X4400Y1317D01*
G01X4681Y1563D02*
G01X4681Y1276D01*
G01X4681Y1563D02*
G01X4776Y1563D01*
G01X4817Y1549D01*
G01X4844Y1522D01*
G01X4857Y1494D01*
G01X4872Y1454D01*
G01X4872Y1385D01*
G01X4857Y1344D01*
G01X4844Y1317D01*
G01X4817Y1290D01*
G01X4776Y1276D01*
G01X4681Y1276D01*
G01X5071Y1563D02*
G01X4961Y1276D01*
G01X5071Y1563D02*
G01X5180Y1276D01*
G01X5002Y1372D02*
G01X5139Y1372D01*
G01X5918Y659D02*
G01X5890Y686D01*
G01X5850Y700D01*
G01X5794Y700D01*
G01X5753Y686D01*
G01X5727Y659D01*
G01X5727Y631D01*
G01X5740Y604D01*
G01X5753Y591D01*
G01X5781Y577D01*
G01X5863Y550D01*
G01X5890Y536D01*
G01X5903Y522D01*
G01X5918Y495D01*
G01X5918Y454D01*
G01X5890Y427D01*
G01X5850Y413D01*
G01X5794Y413D01*
G01X5753Y427D01*
G01X5727Y454D01*
G01X6007Y700D02*
G01X6007Y413D01*
G01X6007Y700D02*
G01X6102Y700D01*
G01X6143Y686D01*
G01X6172Y659D01*
G01X6185Y631D01*
G01X6198Y591D01*
G01X6198Y522D01*
G01X6185Y481D01*
G01X6172Y454D01*
G01X6143Y427D01*
G01X6102Y413D01*
G01X6007Y413D01*
G01X6397Y700D02*
G01X6289Y413D01*
G01X6397Y700D02*
G01X6506Y413D01*
G01X6330Y509D02*
G01X6465Y509D01*
G01X5958Y1659D02*
G01X5931Y1686D01*
G01X5890Y1700D01*
G01X5835Y1700D01*
G01X5794Y1686D01*
G01X5767Y1659D01*
G01X5767Y1630D01*
G01X5781Y1603D01*
G01X5794Y1590D01*
G01X5822Y1576D01*
G01X5903Y1550D01*
G01X5931Y1536D01*
G01X5944Y1521D01*
G01X5958Y1494D01*
G01X5958Y1453D01*
G01X5931Y1426D01*
G01X5890Y1413D01*
G01X5835Y1413D01*
G01X5794Y1426D01*
G01X5767Y1453D01*
G01X6252Y1630D02*
G01X6239Y1659D01*
G01X6212Y1686D01*
G01X6184Y1700D01*
G01X6130Y1700D01*
G01X6102Y1686D01*
G01X6075Y1659D01*
G01X6062Y1630D01*
G01X6048Y1590D01*
G01X6048Y1521D01*
G01X6062Y1480D01*
G01X6075Y1453D01*
G01X6102Y1426D01*
G01X6130Y1413D01*
G01X6184Y1413D01*
G01X6212Y1426D01*
G01X6239Y1453D01*
G01X6252Y1480D01*
G01X6342Y1700D02*
G01X6342Y1413D01*
G01X6342Y1413D02*
G01X6506Y1413D01*
G01X5945Y2731D02*
G01X5931Y2758D01*
G01X5904Y2785D01*
G01X5876Y2799D01*
G01X5822Y2799D01*
G01X5795Y2785D01*
G01X5767Y2758D01*
G01X5754Y2731D01*
G01X5740Y2690D01*
G01X5740Y2621D01*
G01X5754Y2581D01*
G01X5767Y2553D01*
G01X5795Y2526D01*
G01X5822Y2512D01*
G01X5876Y2512D01*
G01X5904Y2526D01*
G01X5931Y2553D01*
G01X5945Y2581D01*
G01X5945Y2621D01*
G01X5876Y2621D02*
G01X5945Y2621D01*
G01X6035Y2799D02*
G01X6035Y2512D01*
G01X6035Y2799D02*
G01X6225Y2512D01*
G01X6225Y2799D02*
G01X6225Y2512D01*
G01X6315Y2799D02*
G01X6315Y2512D01*
G01X6315Y2799D02*
G01X6411Y2799D01*
G01X6452Y2785D01*
G01X6479Y2758D01*
G01X6493Y2731D01*
G01X6506Y2690D01*
G01X6506Y2621D01*
G01X6493Y2581D01*
G01X6479Y2553D01*
G01X6452Y2526D01*
G01X6411Y2512D01*
G01X6315Y2512D01*
G01X5700Y3700D02*
G01X5809Y3413D01*
G01X5918Y3700D02*
G01X5809Y3413D01*
G01X6213Y3632D02*
G01X6198Y3659D01*
G01X6172Y3686D01*
G01X6144Y3700D01*
G01X6089Y3700D01*
G01X6063Y3686D01*
G01X6035Y3659D01*
G01X6022Y3632D01*
G01X6007Y3591D01*
G01X6007Y3522D01*
G01X6022Y3482D01*
G01X6035Y3454D01*
G01X6063Y3427D01*
G01X6089Y3413D01*
G01X6144Y3413D01*
G01X6172Y3427D01*
G01X6198Y3454D01*
G01X6213Y3482D01*
G01X6506Y3632D02*
G01X6493Y3659D01*
G01X6465Y3686D01*
G01X6439Y3700D01*
G01X6385Y3700D01*
G01X6356Y3686D01*
G01X6330Y3659D01*
G01X6315Y3632D01*
G01X6302Y3591D01*
G01X6302Y3522D01*
G01X6315Y3482D01*
G01X6330Y3454D01*
G01X6356Y3427D01*
G01X6385Y3413D01*
G01X6439Y3413D01*
G01X6465Y3427D01*
G01X6493Y3454D01*
G01X6506Y3482D01*
G01X468Y1314D02*
G01X440Y1300D01*
G01X413Y1273D01*
G01X400Y1246D01*
G01X400Y1191D01*
G01X413Y1164D01*
G01X440Y1137D01*
G01X468Y1123D01*
G01X509Y1110D01*
G01X577Y1110D01*
G01X618Y1123D01*
G01X645Y1137D01*
G01X672Y1164D01*
G01X686Y1191D01*
G01X686Y1246D01*
G01X672Y1273D01*
G01X645Y1300D01*
G01X618Y1314D01*
G01X495Y1404D02*
G01X686Y1404D01*
G01X577Y1404D02*
G01X536Y1418D01*
G01X509Y1445D01*
G01X495Y1472D01*
G01X495Y1513D01*
G01X495Y1617D02*
G01X686Y1699D01*
G01X495Y1780D02*
G01X686Y1699D01*
G01X740Y1671D01*
G01X768Y1644D01*
G01X781Y1617D01*
G01X781Y1603D01*
G01X495Y1870D02*
G01X781Y1870D01*
G01X536Y1870D02*
G01X509Y1898D01*
G01X495Y1925D01*
G01X495Y1966D01*
G01X509Y1993D01*
G01X536Y2020D01*
G01X577Y2034D01*
G01X604Y2034D01*
G01X645Y2020D01*
G01X672Y1993D01*
G01X686Y1966D01*
G01X686Y1925D01*
G01X672Y1898D01*
G01X645Y1870D01*
G01X400Y2165D02*
G01X631Y2165D01*
G01X672Y2179D01*
G01X686Y2206D01*
G01X686Y2233D01*
G01X495Y2124D02*
G01X495Y2220D01*
G01X495Y2391D02*
G01X509Y2364D01*
G01X536Y2337D01*
G01X577Y2323D01*
G01X604Y2323D01*
G01X645Y2337D01*
G01X672Y2364D01*
G01X686Y2391D01*
G01X686Y2432D01*
G01X672Y2460D01*
G01X645Y2487D01*
G01X604Y2500D01*
G01X577Y2500D01*
G01X536Y2487D01*
G01X509Y2460D01*
G01X495Y2432D01*
G01X495Y2391D01*
G01X400Y2800D02*
G01X686Y2910D01*
G01X400Y3019D02*
G01X686Y2910D01*
G01X468Y3122D02*
G01X454Y3122D01*
G01X427Y3136D01*
G01X413Y3150D01*
G01X400Y3177D01*
G01X400Y3231D01*
G01X413Y3259D01*
G01X427Y3272D01*
G01X454Y3286D01*
G01X481Y3286D01*
G01X509Y3272D01*
G01X550Y3245D01*
G01X686Y3109D01*
G01X686Y3300D01*
G54D10*
G75*
G01X3480Y3800D02*
G2X2980Y3800I-250J0D01*
G01*
G75*
G01X2455Y3890D02*
G03X2455Y3890I-75J0D01*
G01*
M00*
M02*
